<?xml version="1.0" standalone="no"?><!DOCTYPE svg PUBLIC "-//W3C//DTD SVG 1.1//EN" "http://www.w3.org/Graphics/SVG/1.1/DTD/svg11.dtd"><svg t="1654447600793" class="icon" viewBox="0 0 1024 1024" version="1.1" xmlns="http://www.w3.org/2000/svg" p-id="1046" width="16" height="16" xmlns:xlink="http://www.w3.org/1999/xlink"><defs><style type="text/css">@font-face { font-family: feedback-iconfont; src: url("//at.alicdn.com/t/font_1031158_u69w8yhxdu.woff2?t=1630033759944") format("woff2"), url("//at.alicdn.com/t/font_1031158_u69w8yhxdu.woff?t=1630033759944") format("woff"), url("//at.alicdn.com/t/font_1031158_u69w8yhxdu.ttf?t=1630033759944") format("truetype"); }
</style></defs><path d="M802.13333333 361.81333333c-17.06666667-27.30666667-37.54666667-47.78666667-47.78666666-58.02666666-10.24-10.24-30.72-10.24-40.96 3.41333333-10.24 10.24-10.24 30.72 3.41333333 40.96 3.41333333 3.41333333 6.82666667 6.82666667 10.24 10.24 10.24 10.24 20.48 23.89333333 27.30666667 37.54666667 61.44 92.16 61.44 191.14666667-40.96 296.96-10.24 10.24-10.24 30.72 0 40.96 10.24 10.24 30.72 10.24 40.96 0C873.81333333 604.16 873.81333333 474.45333333 802.13333333 361.81333333z" p-id="1047" fill="#999999"></path><path d="M921.6 228.69333333c-17.06666667-27.30666667-37.54666667-51.2-58.02666667-75.09333333-10.24-13.65333333-20.48-20.48-27.30666666-27.30666667-10.24-10.24-30.72-10.24-40.96 3.41333334-10.24 10.24-10.24 30.72 3.41333333 40.96 3.41333333 3.41333333 13.65333333 10.24 23.89333333 23.89333333 17.06666667 20.48 34.13333333 40.96 51.2 68.26666667 112.64 170.66666667 112.64 358.4-75.09333333 552.96-10.24 10.24-10.24 30.72 0 40.96 10.24 10.24 30.72 10.24 40.96 0C1047.89333333 638.29333333 1047.89333333 419.84 921.6 228.69333333z" p-id="1048" fill="#999999"></path><path d="M481.28 58.02666667l-232.10666667 197.97333333-116.05333333 0c-61.44 0-116.05333333 51.2-116.05333333 116.05333333l0 290.13333334c0 64.85333333 51.2 116.05333333 116.05333333 116.05333333l102.4 0 245.76 194.56c58.02666667 44.37333333 112.64 17.06666667 112.64-54.61333333l0-805.54666667C593.92 37.54666667 535.89333333 10.24 481.28 58.02666667zM535.89333333 914.77333333c0 23.89333333-3.41333333 23.89333333-20.48 10.24l-252.58666666-197.97333333c-3.41333333-3.41333333-10.24-6.82666667-17.06666667-6.82666667l-112.64 0c-30.72 0-58.02666667-27.30666667-58.02666667-58.02666666l0-290.13333334c0-30.72 27.30666667-58.02666667 58.02666667-58.02666666l126.29333333 0c6.82666667 0 13.65333333-3.41333333 17.06666667-6.82666667l238.93333333-204.8c17.06666667-13.65333333 17.06666667-13.65333333 17.06666667 6.82666667L532.48 914.77333333z" p-id="1049" fill="#999999"></path></svg>