<?xml version="1.0" encoding="UTF-8"?>
<svg width="80px" height="80px" viewBox="0 0 80 80" version="1.1" xmlns="http://www.w3.org/2000/svg" xmlns:xlink="http://www.w3.org/1999/xlink">
    <title>小程序登录</title>
    <g id="0707" stroke="none" stroke-width="1" fill="none" fill-rule="evenodd" opacity="0.8">
        <g id="板块首页备份-3" transform="translate(-1256.000000, -73.000000)" fill-rule="nonzero">
            <g id="小程序登录" transform="translate(1256.000000, 73.000000)">
                <rect id="矩形" fill="#000000" opacity="0" x="0" y="0" width="80" height="80"></rect>
                <path d="M66.1505581,3 C72.1433967,3 77,7.85821942 77,13.8503867 L77,13.8503867 L77,66.1496928 C77,72.1418601 72.1433967,77 66.1505581,77 L66.1505581,77 L13.8518283,77 C7.85779641,77 3,72.1417805 3,66.1496928 L3,66.1496928 L3,13.8503867 C3,7.85821942 7.85771688,3 13.8518283,3 L13.8518283,3 Z M22.9492188,28.5253906 L18.3642578,28.5253906 L10,50 L14.5996094,50 L16.3720703,45.1220703 L24.9560547,45.1220703 L26.8310547,50 L31.5478516,50 L22.9492188,28.5253906 Z M40.8056641,28.5253906 L33.8476562,28.5253906 L33.8476562,50 L38.1835938,50 L38.1835938,41.8994141 L41.0107422,41.8994141 C42.9736328,41.8994141 44.4726562,41.796875 45.5078125,41.5917969 C46.2695312,41.4257812 47.019043,41.0864258 47.7563477,40.5737305 C48.4936523,40.0610352 49.1015625,39.3554688 49.5800781,38.4570312 C50.0585938,37.5585938 50.2978516,36.4501953 50.2978516,35.1318359 C50.2978516,33.4228516 49.8828125,32.0288086 49.0527344,30.949707 C48.2226562,29.8706055 47.1923828,29.1699219 45.9619141,28.8476562 C45.197532,28.6425781 43.5967362,28.5353782 41.1595267,28.5260565 L40.8056641,28.5253906 Z M60.8154297,28.5253906 L53.8574219,28.5253906 L53.8574219,50 L58.1933594,50 L58.1933594,41.8994141 L61.0205078,41.8994141 C62.9833984,41.8994141 64.4824219,41.796875 65.5175781,41.5917969 C66.2792969,41.4257812 67.0288086,41.0864258 67.7661133,40.5737305 C68.503418,40.0610352 69.1113281,39.3554688 69.5898438,38.4570312 C70.0683594,37.5585938 70.3076172,36.4501953 70.3076172,35.1318359 C70.3076172,33.4228516 69.8925781,32.0288086 69.0625,30.949707 C68.2324219,29.8706055 67.2021484,29.1699219 65.9716797,28.8476562 C65.2072976,28.6425781 63.6065018,28.5353782 61.1692924,28.5260565 L60.8154297,28.5253906 Z M20.6054688,33.5351562 L23.5644531,41.5039062 L17.7050781,41.5039062 L20.6054688,33.5351562 Z M40.5838542,32.1588542 C41.9771701,32.1649306 42.9153646,32.2135417 43.3984375,32.3046875 C44.1015625,32.4316406 44.6826172,32.7490234 45.1416016,33.2568359 C45.6005859,33.7646484 45.8300781,34.4091797 45.8300781,35.1904297 C45.8300781,35.8251953 45.6665039,36.3818359 45.3393555,36.8603516 C45.012207,37.3388672 44.5605469,37.6904297 43.984375,37.9150391 C43.4082031,38.1396484 42.265625,38.2519531 40.5566406,38.2519531 L38.1835938,38.2519531 L38.1835938,32.1582031 L40.5838542,32.1588542 Z M60.5936198,32.1588542 C61.9869358,32.1649306 62.9251302,32.2135417 63.4082031,32.3046875 C64.1113281,32.4316406 64.6923828,32.7490234 65.1513672,33.2568359 C65.6103516,33.7646484 65.8398438,34.4091797 65.8398438,35.1904297 C65.8398438,35.8251953 65.6762695,36.3818359 65.3491211,36.8603516 C65.0219727,37.3388672 64.5703125,37.6904297 63.9941406,37.9150391 C63.4179688,38.1396484 62.2753906,38.2519531 60.5664062,38.2519531 L58.1933594,38.2519531 L58.1933594,32.1582031 L60.5936198,32.1588542 Z" id="形状结合" fill="#FFFFFF"></path>
            </g>
        </g>
    </g>
</svg>