<?xml version="1.0" encoding="UTF-8"?>
<svg width="24px" height="24px" viewBox="0 0 24 24" version="1.1" xmlns="http://www.w3.org/2000/svg" xmlns:xlink="http://www.w3.org/1999/xlink">
    <title>健康服务-小</title>
    <g id="0707" stroke="none" stroke-width="1" fill="none" fill-rule="evenodd">
        <g id="关于我们" transform="translate(-396.000000, -277.000000)">
            <g id="健康服务-小" transform="translate(396.000000, 277.000000)">
                <rect id="矩形" x="0" y="0" width="24" height="24"></rect>
                <path d="M13.2394918,2.79402445 L13.1111111,2.94587749 L17.6740351,8.36957662 C18.4422898,9.28978468 18.5612392,10.6581937 17.9653966,11.7214363 L20.8525219,14.9108291 C21.4814017,14.2954607 22.2964385,13.2347487 22.5598221,12.8953845 C24.2764785,10.6835096 25.0715139,5.14791119 21.0567128,2.09435387 C17.0419518,-0.970054812 13.2394918,2.79402445 13.2394918,2.79402445 Z M15.608038,13.1170223 L15.5243723,13.1170223 C14.7514391,13.0954179 14.0210799,12.726167 13.5063287,12.0967513 L10.1994492,8.53424338 C9.98159732,8.28154125 9.90458335,7.92085143 9.99765087,7.58913398 C10.0966375,7.27285256 10.3421485,7.03772452 10.6424369,6.97161698 C10.9502694,6.89783131 11.2702828,7.01558433 11.4742696,7.27770046 L14.3923239,10.3569209 L14.9534523,11.0376606 C15.286396,11.4507652 15.9182605,11.4898433 16.3293555,11.1713358 C16.7428204,10.8590961 16.9117316,10.2878961 16.5826227,9.83605271 L15.3964118,8.31637891 L10.8631946,3.18993396 C9.39350136,1.60705997 6.05996895,-0.282427552 2.62068229,3.00663516 C-0.938175508,6.41004628 -0.158855795,11.0947954 1.37682927,13.4414209 L1.9527012,14.3059534 C3.27181631,16.2391031 7.15967414,19.7483012 9.95263994,22.1866972 C11.1889452,23.2660523 12.8046975,23.6196802 13.9592999,22.4279472 L8.74742988,17.2462573 C8.41781153,16.8616914 8.4309464,16.2600532 8.77697302,15.8930438 C8.94188122,15.7188092 9.16400238,15.6240969 9.39350136,15.6301566 C9.62300034,15.6362163 9.84066169,15.7425406 9.99765087,15.9252746 L15.2045771,21.0962427 C15.7869594,20.61294 16.3261404,20.0743814 16.8577176,19.4890952 L11.6908395,14.3787201 C11.3999093,13.9901643 11.4298434,13.4233618 11.7597536,13.073831 C12.0894997,12.7274086 12.6112944,12.7274086 12.9410406,13.073831 L17.9855195,18.0515233 C18.6698938,17.4645375 19.279468,16.7341375 19.7813429,16.1806198 L16.7302985,12.8700068 C16.3752748,13.0410918 15.9912686,13.1289076 15.603154,13.1277659 L15.608038,13.1170223 Z" id="形状备份" fill="#FFFFFF" fill-rule="nonzero" opacity="0.9"></path>
            </g>
        </g>
    </g>
</svg>