<?xml version="1.0" encoding="UTF-8"?>
<svg width="80px" height="80px" viewBox="0 0 80 80" version="1.1" xmlns="http://www.w3.org/2000/svg" xmlns:xlink="http://www.w3.org/1999/xlink">
    <title>登录注册</title>
    <g id="0707" stroke="none" stroke-width="1" fill="none" fill-rule="evenodd" opacity="0.8">
        <g id="板块首页备份-3" transform="translate(-1480.000000, -73.000000)" fill-rule="nonzero">
            <g id="登录注册" transform="translate(1480.000000, 73.000000)">
                <rect id="矩形" fill="#000000" opacity="0" x="0" y="0" width="80" height="80"></rect>
                <path d="M66.1505581,3 C72.1433967,3 77,7.85821942 77,13.8503867 L77,13.8503867 L77,66.1496928 C77,72.1418601 72.1433967,77 66.1505581,77 L66.1505581,77 L13.8518283,77 C7.85779641,77 3,72.1417805 3,66.1496928 L3,66.1496928 L3,13.8503867 C3,7.85821942 7.85771688,3 13.8518283,3 L13.8518283,3 Z M51.0446969,45.245509 L47.007967,59.4678473 C47.007967,59.4678473 46.8070649,60.9256158 45.1420959,60.9256158 C43.477127,60.9256158 42.7744475,59.4678473 42.7744475,59.4678473 L42.7744475,59.4678473 L42.7743727,47.8611842 C42.7719796,47.7117171 42.6930074,45.245509 40.0869251,45.245509 C37.3994027,45.245509 37.3058696,47.8682635 37.3058696,47.8682635 L37.3058696,47.8682635 L37.3051184,59.485787 C37.2953534,59.6373772 37.1586432,60.6985089 35.244701,60.6985089 C33.1835325,60.6985089 33.0682145,59.4678473 33.0682145,59.4678473 L33.0682145,59.4678473 L28.9451412,45.245509 L23.5019045,47.9613357 C20.5425759,49.4378513 18.1437126,53.3157269 18.1437126,56.6229037 L18.1437126,56.6229037 L18.1437126,60.2393718 C18.1437126,63.5470445 20.8245507,66.2275449 24.1315322,66.2275449 L24.1315322,66.2275449 L55.8684678,66.2275449 C59.1753873,66.2275449 61.8562874,63.5465485 61.8562874,60.2393718 L61.8562874,60.2393718 L61.8562874,56.6229037 C61.8562874,53.3152309 59.4568589,49.4386945 56.4970137,47.9633092 L56.4970137,47.9633092 L51.0446969,45.245509 Z M40,13.7724551 C33.2402992,13.7724551 27.7604791,19.2522753 27.7604791,26.0119761 C27.7604791,32.7716768 33.2402992,40.8742515 40,40.8742515 C46.7597008,40.8742515 52.2395209,32.7716768 52.2395209,26.0119761 C52.2395209,19.2522753 46.7597008,13.7724551 40,13.7724551 Z" id="形状结合" fill="#FFFFFF"></path>
            </g>
        </g>
    </g>
</svg>