<?xml version="1.0" encoding="UTF-8"?>
<svg width="80px" height="80px" viewBox="0 0 80 80" version="1.1" xmlns="http://www.w3.org/2000/svg" xmlns:xlink="http://www.w3.org/1999/xlink">
    <title>微信登录</title>
    <g id="0707" stroke="none" stroke-width="1" fill="none" fill-rule="evenodd" opacity="0.8">
        <g id="板块首页备份-3" transform="translate(-1368.000000, -73.000000)" fill-rule="nonzero">
            <g id="微信登录" transform="translate(1368.000000, 73.000000)">
                <rect id="矩形" fill="#000000" opacity="0" x="0" y="0" width="80" height="80"></rect>
                <path d="M26.9339681,27.1479018 C25.6020494,27.1479018 24.2689375,28.0300645 24.2677444,29.3632925 C24.2677444,30.6965206 25.6008563,31.5787628 26.9339681,31.5787628 C28.2670801,31.5787628 29.149166,30.6766323 29.149166,29.3632925 C29.1492456,28.0300646 28.2671596,27.1479018 26.9339681,27.1479018 Z M39.3233417,31.5787629 C40.6565331,31.5787629 41.5386986,30.6966002 41.5386986,29.3658383 C41.5386986,28.0301441 40.6578854,27.1479814 39.3233417,27.1479814 C38.0101958,27.1479814 36.6770044,28.0301441 36.6583907,29.3633721 C36.6583907,30.6965206 37.9902298,31.5787629 39.3233417,31.5787629 Z M45.0871674,40.0093077 C44.2050815,40.0093077 43.3228365,40.8914704 43.3228365,41.7736332 C43.3228365,42.6558755 44.2050815,43.5380382 45.0871674,43.5380382 C46.4202793,43.5380382 47.3023652,42.6558755 47.3023652,41.7736332 C47.3023652,40.89155 46.4202793,40.0093077 45.0871674,40.0093077 Z M66.1505581,3 L13.8518283,3 C7.85771688,3 3,7.85821942 3,13.8503867 L3,66.1496928 C3,72.1417805 7.85779641,77 13.8518283,77 L66.1505581,77 C72.1433967,77 77,72.1418601 77,66.1496928 L77,13.8503867 C77,7.85821942 72.1433967,3 66.1505581,3 Z M32.6963621,49.7333041 C30.5011303,49.7333041 28.718106,49.2822389 26.5016355,48.853528 L20.3069885,51.9685831 L22.0710808,46.6356712 C17.6418785,43.5380382 14.9943479,39.535729 14.9956202,34.6763163 C14.9968934,26.2456919 22.9744851,19.619408 32.6987484,19.619408 C41.4029135,19.619408 49.0279572,24.91493 50.5567523,32.0521826 C49.9886346,31.9923588 49.4204373,31.9525027 48.8510468,31.9525027 C40.4409634,31.9525027 33.7952904,38.224935 33.7940177,45.9503225 C33.7940177,47.2238062 33.9908941,48.4797882 34.3434421,49.6559787 C33.7940177,49.7133363 33.2457865,49.7333041 32.6963621,49.7333041 Z M58.8109255,55.9484583 L60.1427647,60.3792397 L55.2813092,57.7127837 C53.5170578,58.1438812 51.7329199,58.5949464 49.9686686,58.5949464 C41.5386986,58.5949464 34.9115599,52.8508253 34.9115599,45.7534288 C34.9115599,38.6760797 41.5387781,32.9119907 49.9686686,32.9119907 C57.9276465,32.9119907 65.0044589,38.6760797 65.0044589,45.7559744 C65.0044589,49.7333041 62.3581215,53.2819228 58.8109255,55.9484583 Z M54.8302036,40.0093077 C53.9481177,40.0093077 53.0659523,40.8914704 53.0659523,41.7736332 C53.0659523,42.6558755 53.9481177,43.5380382 54.8302036,43.5380382 C56.143429,43.5380382 57.0454014,42.6558755 57.0454014,41.7736332 C57.0453219,40.89155 56.1633951,40.0093077 54.8302036,40.0093077 Z" id="形状" fill="#FFFFFF"></path>
            </g>
        </g>
    </g>
</svg>