<?xml version="1.0" encoding="UTF-8"?>
<svg width="20px" height="20px" viewBox="0 0 20 20" version="1.1" xmlns="http://www.w3.org/2000/svg" xmlns:xlink="http://www.w3.org/1999/xlink">
    <title>搜索小</title>
    <g id="健康中国" stroke="none" stroke-width="1" fill="none" fill-rule="evenodd">
        <g id="卒中科普" transform="translate(-1527.000000, -71.000000)" fill-rule="nonzero">
            <g id="搜索小" transform="translate(1527.000000, 71.000000)">
                <rect id="矩形" fill="#000000" opacity="0" x="0" y="0" width="20" height="20"></rect>
                <path d="M14.7766667,13.6183333 C14.8183333,13.6475 14.8591667,13.68 14.8958333,13.7183333 L19.6158333,18.4375 C19.9333333,18.755 19.9383333,19.2875 19.6133333,19.6125 C19.4581497,19.7694265 19.2468075,19.8580114 19.0261097,19.8586404 C18.8054119,19.8592627 18.5935709,19.7718775 18.4375,19.6158333 L13.7175,14.8958333 C13.6809964,14.8593384 13.6480685,14.8194344 13.6191667,14.7766667 C12.1302448,16.0015219 10.2613243,16.6697723 8.33333334,16.6666667 C3.73083334,16.6666667 0,12.9358333 0,8.33333334 C0,3.73083334 3.73083334,0 8.33333334,0 C12.9358333,0 16.6666667,3.73083334 16.6666667,8.33333334 C16.6666667,10.3391667 15.9583333,12.18 14.7766667,13.6183333 Z M8.33333334,15 C12.0152317,15 15,12.0152317 15,8.33333333 C15,4.651435 12.0152317,1.66666666 8.33333334,1.66666666 C4.65143501,1.66666666 1.66666667,4.651435 1.66666667,8.33333333 C1.66666667,12.0152317 4.65143501,15 8.33333334,15 Z" id="形状" fill="#FFFFFF"></path>
            </g>
        </g>
    </g>
</svg>