<?xml version="1.0" encoding="UTF-8"?>
<svg width="20px" height="20px" viewBox="0 0 20 20" version="1.1" xmlns="http://www.w3.org/2000/svg" xmlns:xlink="http://www.w3.org/1999/xlink">
    <title>卒中评测</title>
    <g id="健康中国" stroke="none" stroke-width="1" fill="none" fill-rule="evenodd">
        <g id="卒中科普" transform="translate(-907.000000, -187.000000)">
            <g id="卒中评测" transform="translate(907.000000, 187.000000)">
                <rect id="矩形" x="0" y="0" width="20" height="20"></rect>
                <path d="M17.5369185,0.740740741 L2.71378571,0.740740741 C1.75255868,0.740740741 0.740740741,1.60324708 0.740740741,2.56722476 L0.740740741,10.0253678 L4.38328531,10.0253678 L5.74923952,8.70624049 C5.90101221,8.55403349 6.1033758,8.50329782 6.35633028,8.55403349 C6.55869387,8.60476915 6.76105745,8.75697615 6.81164835,8.95991882 L8.48114794,12.8665652 L11.0612837,5.10400812 C11.1624655,4.85032978 11.41542,4.64738711 11.6683744,4.64738711 C11.9719198,4.64738711 12.2248743,4.79959411 12.2754652,5.05327245 L13.6920103,10.0253678 L15.5132826,10.0253678 C15.8674189,10.0253678 16.1203734,10.3297818 16.1203734,10.6341958 C16.1203734,10.9386098 15.816828,11.2430238 15.5132826,11.2430238 L13.1861013,11.2430238 C12.882556,11.2430238 12.6296015,11.1415525 12.5790106,10.8371385 L11.6177835,7.43784881 L9.2400114,14.8452562 C9.1388296,15.0989346 8.73410243,15.3018772 8.73410243,15.3018772 C8.32937525,15.3018772 8.12701167,15.1496702 8.02582987,14.8959919 L6.0527849,10.2790462 L5.14214876,11.0908168 C5.04096696,11.1922882 4.83860338,11.1922882 4.68683069,11.1922882 L0.740740741,11.1922882 L0.740740741,17.3820396 C0.740740741,18.3967529 1.70196778,19.2592593 2.71378571,19.2592593 L17.4863276,19.2592593 C18.4981455,19.2592593 19.257009,18.3967529 19.257009,17.3820396 L19.257009,2.56722476 C19.3075998,1.60324708 18.4981455,0.740740741 17.5369185,0.740740741 Z" id="路径备份" fill="#FFFFFF" fill-rule="nonzero"></path>
            </g>
        </g>
    </g>
</svg>