<?xml version="1.0" encoding="UTF-8"?>
<svg width="116px" height="116px" viewBox="0 0 116 116" version="1.1" xmlns="http://www.w3.org/2000/svg" xmlns:xlink="http://www.w3.org/1999/xlink">
    <title>自我管理</title>
    <g id="0707" stroke="none" stroke-width="1" fill="none" fill-rule="evenodd">
        <g id="板块首页备份-3" transform="translate(-1000.000000, -640.000000)">
            <g id="自我管理" transform="translate(1000.000000, 640.000000)">
                <rect id="矩形备份-2" x="0" y="0" width="116" height="116"></rect>
                <g id="编组-5" transform="translate(3.449119, 9.459216)" fill-rule="nonzero">
                    <path d="M40.9181055,27.5162593 C40.758369,37.0267249 45.6610509,45.8982445 53.8076125,50.8132138 C61.7452879,55.5561591 71.648951,55.5561591 79.5866264,50.8132138 C87.6226012,45.971969 92.5129957,37.2601859 92.4761334,27.884882 C92.6727322,20.8687634 90.0432236,14.0738183 85.177404,9.02368737 C80.3115844,3.97355642 73.6272262,1.07372454 66.6111075,1 C52.2102475,1.23346104 40.7092193,13.1031119 40.9181055,27.5162593 Z M40.1808601,36.1543179 C39.9842614,34.0777433 38.1534353,32.5418154 36.0768608,32.7138393 L5.10399936,32.7138393 C2.9045506,32.8612884 1.14744908,34.6061025 1,36.8178387 L1,98.783314 L18.19866,98.783314 C13.3697027,78.3493292 24.5881201,64.5751278 40.1808601,54.8312012 L40.1808601,36.1543179 Z M12.276122,43.4776221 L28.7535565,43.4776221 C30.043736,43.4776221 31.1004544,44.5220531 31.1004544,45.8245199 C31.1004544,47.1146994 30.0560234,48.1714178 28.7535565,48.1714178 L12.276122,48.1714178 C10.9859426,48.1714178 9.92922416,47.1269868 9.92922416,45.8245199 C9.92922416,44.5343405 10.9859426,43.4776221 12.276122,43.4776221 Z M9.92922416,53.811345 C9.92922416,53.1846864 10.1749726,52.5948901 10.6173199,52.1525429 C11.0596671,51.7101957 11.6494634,51.4644472 12.276122,51.4644472 L28.7535565,51.4644472 C30.043736,51.4644472 31.1004544,52.5088782 31.1004544,53.811345 C31.1004544,55.1015245 30.0560234,56.1582429 28.7535565,56.1582429 L12.276122,56.1582429 C11.6494634,56.1582429 11.0596671,55.9124944 10.6173199,55.4701472 C10.1749726,55.0277999 9.92922416,54.4257162 9.92922416,53.811345 Z M82.9533804,59.0089251 L73.3569029,79.590359 L69.9164244,70.6574023 C70.2236099,68.9125882 70.9239931,67.253786 71.968424,65.8284449 C73.3569029,62.3879664 74.0204237,60.9994876 70.5799452,58.9474879 C69.0440173,58.0996557 67.2254787,57.903057 65.5421017,58.4191287 C63.8587247,58.9352005 62.4579585,60.1025057 61.6469885,61.6630085 C60.2585097,65.103487 63.6989882,66.4919658 63.6989882,68.5439655 C63.2074913,72.2424799 62.5193956,75.904132 61.6469885,79.5289218 C60.7745815,83.1537117 61.6469885,82.2444424 58.20651,75.4249225 C55.6015763,69.7972827 53.328403,64.0221937 51.3992776,58.136518 C32.8698433,64.5136907 23.2733658,76.8134013 23.2733658,94.7653266 C23.2733658,101.646284 107.724826,105.086762 109.776825,90.6613273 C111.816538,76.223605 85.7426255,52.2016926 82.9533804,59.0826496 L82.9533804,59.0089251 Z" id="形状" fill="#FFFFFF"></path>
                    <path d="M39.9181055,26.5162593 C39.758369,36.0267249 44.6610509,44.8982445 52.8076125,49.8132138 C60.7452879,54.5561591 70.648951,54.5561591 78.5866264,49.8132138 C86.6226012,44.971969 91.5129957,36.2601859 91.4761334,26.884882 C91.6727322,19.8687634 89.0432236,13.0738183 84.177404,8.02368737 C79.3115844,2.97355642 72.6272262,0.0737245394 65.6111075,0 C51.2102475,0.233461041 39.7092193,12.1031119 39.9181055,26.5162593 Z M39.1808601,35.1543179 C38.9842614,33.0777433 37.1534353,31.5418154 35.0768608,31.7138393 L4.10399936,31.7138393 C1.9045506,31.8612884 0.147449079,33.6061025 0,35.8178387 L0,97.783314 L17.19866,97.783314 C12.3697027,77.3493292 23.5881201,63.5751278 39.1808601,53.8312012 L39.1808601,35.1543179 Z M11.276122,42.4776221 L27.7535565,42.4776221 C29.043736,42.4776221 30.1004544,43.5220531 30.1004544,44.8245199 C30.1004544,46.1146994 29.0560234,47.1714178 27.7535565,47.1714178 L11.276122,47.1714178 C9.98594256,47.1714178 8.92922416,46.1269868 8.92922416,44.8245199 C8.92922416,43.5343405 9.98594256,42.4776221 11.276122,42.4776221 Z M8.92922416,52.811345 C8.92922416,52.1846864 9.17497263,51.5948901 9.61731986,51.1525429 C10.0596671,50.7101957 10.6494634,50.4644472 11.276122,50.4644472 L27.7535565,50.4644472 C29.043736,50.4644472 30.1004544,51.5088782 30.1004544,52.811345 C30.1004544,54.1015245 29.0560234,55.1582429 27.7535565,55.1582429 L11.276122,55.1582429 C10.6494634,55.1582429 10.0596671,54.9124944 9.61731986,54.4701472 C9.17497263,54.0277999 8.92922416,53.4257162 8.92922416,52.811345 Z M81.9533804,58.0089251 L72.3569029,78.590359 L68.9164244,69.6574023 C69.2236099,67.9125882 69.9239931,66.253786 70.968424,64.8284449 C72.3569029,61.3879664 73.0204237,59.9994876 69.5799452,57.9474879 C68.0440173,57.0996557 66.2254787,56.903057 64.5421017,57.4191287 C62.8587247,57.9352005 61.4579585,59.1025057 60.6469885,60.6630085 C59.2585097,64.103487 62.6989882,65.4919658 62.6989882,67.5439655 C62.2074913,71.2424799 61.5193956,74.904132 60.6469885,78.5289218 C59.7745815,82.1537117 60.6469885,81.2444424 57.20651,74.4249225 C54.6015763,68.7972827 52.328403,63.0221937 50.3992776,57.136518 C31.8698433,63.5136907 22.2733658,75.8134013 22.2733658,93.7653266 C22.2733658,100.646284 106.724826,104.086762 108.776825,89.6613273 C110.816538,75.223605 84.7426255,51.2016926 81.9533804,58.0826496 L81.9533804,58.0089251 Z" id="形状" fill="#00B4C3"></path>
                </g>
            </g>
        </g>
    </g>
</svg>