<?xml version="1.0" encoding="UTF-8"?>
<svg width="20px" height="20px" viewBox="0 0 20 20" version="1.1" xmlns="http://www.w3.org/2000/svg" xmlns:xlink="http://www.w3.org/1999/xlink">
    <title>卒中科普</title>
    <g id="健康中国" stroke="none" stroke-width="1" fill="none" fill-rule="evenodd">
        <g id="卒中科普" transform="translate(-426.000000, -187.000000)">
            <g transform="translate(426.000000, 187.000000)">
                <rect id="矩形" x="0" y="0" width="20" height="20"></rect>
                <g id="编组备份" transform="translate(0.740741, 0.740741)" fill="#FFFFFF" fill-opacity="0.9" fill-rule="nonzero">
                    <path d="M16.2037037,18.5185185 L2.31481481,18.5185185 C1.03637789,18.5185185 0,17.4934466 0,16.2289562 L0,12.7946128 L6,12.7946128 C6.48371564,14.1659167 7.79144942,15.0845666 9.25983796,15.0845666 C10.7282265,15.0845666 12.0359603,14.1659167 12.5196759,12.7946128 L18.5185185,12.7946128 L18.5185185,16.2289562 C18.5185185,17.4934466 17.4821406,18.5185185 16.2037037,18.5185185 Z M9.35746352,13.973064 C8.0712785,13.973064 7.02861953,12.930405 7.02861953,11.64422 L3.53535354,11.64422 L3.53535354,1.164422 C3.53535354,0.521329486 4.05668302,0 4.69977553,0 L16.3439955,0 C16.987088,0 17.5084175,0.521329486 17.5084175,1.164422 L17.5084175,11.64422 L11.6863075,11.64422 C11.6863075,12.930405 10.6436485,13.973064 9.35746352,13.973064 Z M10.0215008,3.55231304 L9.23862484,3.55231304 L9.23862484,3.55231304 L9.23862484,2.76406471 C9.23862484,2.44621792 8.98095911,2.18855219 8.66311232,2.18855219 C8.34526554,2.18855219 8.08759981,2.44621792 8.08759981,2.76406471 L8.08759981,3.55231304 L8.08759981,3.55231304 L7.31856655,3.55231304 C6.99572308,3.55231304 6.73400673,3.81402938 6.73400673,4.13687285 C6.73400673,4.45971632 6.99572308,4.72143267 7.31856655,4.72143267 L8.08759981,4.72143267 L8.08759981,4.72143267 L8.08759981,5.48509354 C8.08759981,5.80294033 8.34526554,6.06060606 8.66311232,6.06060606 C8.98095911,6.06060606 9.23862484,5.80294033 9.23862484,5.48509354 L9.23862484,4.72143267 L9.23862484,4.72143267 L10.0215008,4.72143267 C10.3443443,4.72143267 10.6060606,4.45971632 10.6060606,4.13687285 C10.6060606,3.81402938 10.3443443,3.55231304 10.0215008,3.55231304 Z M14.3939394,6.9023569 L7.49158249,6.9023569 C7.16616218,6.9023569 6.9023569,7.16616218 6.9023569,7.49158249 C6.9023569,7.8170028 7.16616218,8.08080808 7.49158249,8.08080808 L14.3939394,8.08080808 C14.7193597,8.08080808 14.983165,7.8170028 14.983165,7.49158249 C14.983165,7.16616218 14.7193597,6.9023569 14.3939394,6.9023569 Z M14.3939394,9.25925926 L7.49158249,9.25925926 C7.16616218,9.25925926 6.9023569,9.52306454 6.9023569,9.84848485 C6.9023569,10.1739052 7.16616218,10.4377104 7.49158249,10.4377104 L14.3939394,10.4377104 C14.7193597,10.4377104 14.983165,10.1739052 14.983165,9.84848485 C14.983165,9.52306454 14.7193597,9.25925926 14.3939394,9.25925926 Z M1.17845118,2.33819678 C1.17845118,1.69768697 1.70606174,1.17845118 2.35690236,1.17845118 L2.35690236,11.6161616 L1.17845118,11.6161616 L1.17845118,2.33819678 Z" id="形状"></path>
                </g>
            </g>
        </g>
    </g>
</svg>