<?xml version="1.0" encoding="UTF-8"?>
<svg width="116px" height="116px" viewBox="0 0 116 116" version="1.1" xmlns="http://www.w3.org/2000/svg" xmlns:xlink="http://www.w3.org/1999/xlink">
    <title>健康服务</title>
    <g id="0707" stroke="none" stroke-width="1" fill="none" fill-rule="evenodd">
        <g id="板块首页备份-3" transform="translate(-412.000000, -564.000000)">
            <g id="健康服务" transform="translate(412.000000, 564.000000)">
                <rect id="矩形" x="0" y="0" width="116" height="116"></rect>
                <g id="编组" transform="translate(0.000000, 8.000000)" fill-rule="nonzero">
                    <path d="M102.788069,6.17217528 C83.2944498,-7.18077286 64.8317482,9.27934608 64.8317482,9.27934608 L64.2084007,9.94339133 L86.3635066,33.6609399 C90.0937387,37.6849609 90.6712931,43.6689408 87.7782015,48.3184444 L100.917832,62.1695466 C103.051819,59.7977917 104.802222,57.6632027 106.096889,55.9555892 C107.056042,54.6984852 107.991112,53.4414772 108.926279,52.160647 C116.479185,41.8672251 122.281687,19.5727679 102.787971,6.21972372 L102.788069,6.17217528 Z M75.9092526,54.9830074 L75.5016829,54.9830074 C71.7364106,54.8875851 68.1785332,53.2566739 65.6709707,50.4766635 L50.6372148,33.8743796 C49.5759693,32.7582421 49.2008029,31.1651435 49.6541727,29.7000103 C50.1363767,28.3030552 51.3323611,27.2645392 52.7951878,26.9725547 C54.2947653,26.6466573 55.8536809,27.1667501 56.8473838,28.3244674 L69.987014,42.7921624 L72.5765428,45.9465935 C74.1984474,47.7711986 76.9519067,48.0886048 78.9545175,46.6818174 C80.9686737,45.302714 81.6872079,42.6898938 80.6568516,40.4915862 C80.5596423,40.3305294 80.4716204,40.1642181 80.3931986,39.9934322 L80.2732681,39.6850877 L80.0814763,39.4480179 L79.8416152,39.1633996 L79.6738095,38.9973163 L74.8783354,33.7794748 L51.884007,9.06581034 C49.6781588,7.21574357 32.3904853,-6.23210934 14.1675478,6.17217528 C-5.32597389,19.5489457 0.500611634,41.7486902 7.98155901,52.1132906 L10.7868657,55.931767 C17.2128127,64.4701229 36.346834,83.3967093 48.3595054,95.0420439 C53.8808207,100.411571 60.5500432,102.048401 66.1745819,96.7847417 L41.9586124,72.6026419 C40.3529072,70.9040873 40.4168925,68.2467654 42.1025291,66.6257543 C42.9058641,65.8561931 43.9879067,65.4378669 45.1058897,65.4646314 C46.2238727,65.4913959 47.2841898,65.9610101 48.048948,66.7681115 L72.2408344,90.902855 C74.6385714,88.5311002 77.2520864,85.9695358 79.8416152,83.3844373 L56.2971596,59.9372731 C54.8799201,58.2210959 55.0257413,55.7176367 56.632868,54.1738252 C58.2391958,52.6437433 60.7810704,52.6437433 62.3873981,54.1738252 L85.787937,77.454906 C88.6165014,74.9290136 92.909287,70.8026151 95.1392184,68.3834079 L81.3762407,53.8919867 C79.6467753,54.6476368 77.7761248,55.0355025 75.8854607,55.0304598 L75.9092526,54.9830074 Z" id="形状" fill="#FFFFFF"></path>
                    <path d="M101.829391,5.22388595 C82.3357721,-8.12906218 63.8730705,8.33105675 63.8730705,8.33105675 L63.249723,8.995102 L85.4048289,32.7126506 C89.135061,36.7366716 89.7126154,42.7206514 86.8195239,47.3701551 L99.959154,61.2212573 C102.093141,58.8495024 103.843544,56.7149134 105.138212,55.0072999 C106.097365,53.7501958 107.032435,52.4931879 107.967602,51.2123576 C115.520507,40.9189358 121.32301,18.6244786 101.829294,5.2714344 L101.829391,5.22388595 Z M74.9505749,54.034718 L74.5430053,54.034718 C70.7777329,53.9392957 67.2198555,52.3083845 64.7122931,49.5283742 L49.6785371,32.9260902 C48.6172916,31.8099528 48.2421252,30.2168541 48.695495,28.751721 C49.177699,27.3547659 50.3736835,26.3162498 51.8365101,26.0242654 C53.3360876,25.698368 54.8950033,26.2184608 55.8887062,27.3761781 L69.0283363,41.8438731 L71.6178651,44.9983042 C73.2397697,46.8229092 75.993229,47.1403155 77.9958398,45.733528 C80.009996,44.3544247 80.7285303,41.7416044 79.6981739,39.5432968 C79.6009646,39.3822401 79.5129427,39.2159288 79.4345209,39.0451428 L79.3145904,38.7367984 L79.1227986,38.4997286 L78.8829375,38.2151103 L78.7151318,38.0490269 L73.9196577,32.8311855 L50.9253293,8.11752101 C48.7194811,6.26745424 31.4318076,-7.18039866 13.2088701,5.22388595 C-6.28465158,18.6006563 -0.458066052,40.8004009 7.02288132,51.1650013 L9.82818803,54.9834776 C16.254135,63.5218335 35.3881563,82.44842 47.4008277,94.0937546 C52.922143,99.4632815 59.5913655,101.100111 65.2159043,95.8364524 L40.9999347,71.6543525 C39.3942295,69.9557979 39.4582148,67.2984761 41.1438514,65.677465 C41.9471864,64.9079038 43.029229,64.4895776 44.147212,64.5163421 C45.265195,64.5431066 46.3255121,65.0127208 47.0902703,65.8198221 L71.2821567,89.9545657 C73.6798937,87.5828108 76.2934087,85.0212464 78.8829375,82.4361479 L55.3384819,58.9889837 C53.9212425,57.2728065 54.0670636,54.7693474 55.6741904,53.2255359 C57.2805181,51.6954539 59.8223927,51.6954539 61.4287204,53.2255359 L84.8292594,76.5066167 C87.6578237,73.9807243 91.9506093,69.8543258 94.1805407,67.4351186 L80.417563,52.9436974 C78.6880976,53.6993475 76.8174471,54.0872132 74.926783,54.0821704 L74.9505749,54.034718 Z" id="形状" fill="#01B04A"></path>
                </g>
            </g>
        </g>
    </g>
</svg>