<?xml version="1.0" encoding="UTF-8"?>
<svg width="116px" height="116px" viewBox="0 0 116 116" version="1.1" xmlns="http://www.w3.org/2000/svg" xmlns:xlink="http://www.w3.org/1999/xlink">
    <title>编组 8</title>
    <g id="0707" stroke="none" stroke-width="1" fill="none" fill-rule="evenodd">
        <g id="板块首页备份-3" transform="translate(-1392.000000, -640.000000)">
            <g id="编组-8" transform="translate(1392.000000, 640.000000)">
                <rect id="矩形备份-4" x="0" y="0" width="116" height="116"></rect>
                <g id="编组-7" transform="translate(2.000000, 2.000000)" fill-rule="nonzero">
                    <path d="M111.031595,91.4396135 C111.334222,92.4676329 111.576323,93.6770673 111.757899,95.1888605 C111.939475,96.6401819 112,98.151975 112,99.6637681 C112,101.175561 111.939475,102.566411 111.636848,103.896789 C111.394747,105.227167 111.092121,106.194714 110.607918,106.859903 C110.305292,107.283205 109.457938,107.706508 108.005331,108.190281 C106.552724,108.613583 104.79749,109.036885 102.679105,109.339244 C100.560719,109.702074 98.2002329,110.064905 95.5976452,110.367263 C92.9950576,110.730094 90.4529952,110.971981 87.8504075,111.213868 C85.2478199,111.455754 82.7662828,111.576698 80.2847457,111.758113 C77.8637339,111.879057 75.7453486,112 73.9295898,112 C72.113831,112 69.9954457,111.939528 67.5744339,111.758113 C65.2139474,111.576698 62.7324103,111.395283 60.1298227,111.213868 C57.527235,110.971981 55.0456979,110.730094 52.5641609,110.488207 C50.0826238,110.24632 47.7826626,109.943961 45.6642773,109.641603 C43.545892,109.278772 41.8511838,108.976414 40.3985767,108.613583 C38.9459696,108.250753 38.0986155,107.948394 37.6749384,107.646036 C37.1302108,107.10179 36.6460084,105.589997 36.2223314,103.050185 C35.8591796,100.449901 35.9802302,97.1844274 36.5854831,93.1328218 C36.9486349,90.7744246 37.9170396,89.0207445 39.3696467,87.8717818 C40.8827791,86.722819 42.6380126,85.7552714 44.6958726,84.969139 C46.7537326,84.2434783 48.8115926,83.638761 51.0510285,83.0340438 C53.2299391,82.4897982 55.1667485,81.7036658 56.8009315,80.554703 C58.132488,79.7080989 59.1008927,78.8614947 59.8271962,78.135834 C60.5534997,77.4101733 60.9771768,76.6240409 61.3403286,75.9588519 C61.7034803,75.2331912 61.8245309,74.4470588 61.8245309,73.6609264 C61.8245309,72.874794 61.7640056,71.9677181 61.7034803,70.9396988 C61.5219045,69.4883774 61.0377021,68.3394146 60.190348,67.4323387 C59.3429939,66.5857346 58.3745891,65.7996022 57.2851338,64.952998 C56.7404062,64.5296959 56.3167291,63.9249787 55.9535774,63.0783745 C55.5904256,62.2922421 55.2272738,61.445638 54.9246474,60.6595055 C54.6220209,59.8129014 54.3799197,58.7848821 54.0772932,57.696391 C53.6536162,57.5149758 53.2299391,57.3335607 52.7457368,57.031202 C52.382585,56.7288434 52.0194332,56.3055413 51.5957562,55.7008241 C51.1720791,55.1565786 50.8089273,54.3099744 50.4457756,53.2819551 C50.0826238,52.2539358 49.9010479,51.2863882 50.0220985,50.3793123 C50.0826238,49.4722364 50.2641997,48.7465757 50.5668262,48.1418585 C50.8694526,47.4161978 51.2931297,46.7510088 51.7168068,46.2067633 C51.6562815,43.848366 51.777332,41.429497 52.0799585,39.0710997 C52.382585,37.0150611 52.8062621,34.8985507 53.411515,32.6006252 C54.0167679,30.3631714 54.9851727,28.3071327 56.3167291,26.3720375 C57.4667097,24.6183575 58.7982662,23.1670361 60.3113986,22.078545 C61.7640056,20.990054 63.277138,20.1434498 64.7902704,19.4782609 C66.3034027,18.8735436 67.8770604,18.4502415 69.3901927,18.2083546 C70.9033251,17.9664677 72.4164574,17.8455243 73.8085392,17.8455243 C77.5611075,17.8455243 80.8899987,18.6316567 83.8557381,20.1434498 C86.7609522,21.655243 88.9398628,23.3484513 90.3319446,25.0416596 C91.9661275,27.0372265 93.1161081,29.2142086 93.902937,31.6935493 C94.6897658,34.1124183 95.2344934,36.4708156 95.5976452,38.5268542 C95.960797,41.0061949 96.1423729,43.4855357 96.0213223,45.9648764 C96.384474,46.267235 96.7476258,46.6905371 97.0502523,47.1138392 C97.2923535,47.5371412 97.4739293,48.1418585 97.6555052,48.8070475 C97.8370811,49.5327082 97.8976064,50.3793123 97.7160305,51.4073316 C97.5344546,52.7377096 97.2923535,53.8262006 96.8686764,54.612333 C96.4449993,55.3984655 96.0213223,56.0636544 95.5371199,56.4869565 C94.9923923,57.031202 94.4476646,57.3335607 93.7818864,57.5149758 C93.4792599,58.6034669 93.2371587,59.6314862 92.9345323,60.4780904 C92.6319058,61.2642228 92.268754,62.1108269 91.845077,62.8969594 C91.4213999,63.6830918 90.9371975,64.287809 90.4529952,64.6506394 C89.9082675,65.1948849 89.3030146,65.618187 88.8188122,65.9810173 C88.3346099,66.3438477 87.9714581,66.706678 87.5477811,67.1299801 C87.1846293,67.4928105 86.8214775,67.9765843 86.6399016,68.4603581 C86.3978005,69.0046036 86.1556993,69.6093208 86.0346487,70.3349815 C85.9135981,71.3025291 85.7925475,72.2700767 85.8530728,73.2376243 C85.9135981,74.2656436 86.095174,75.1727195 86.5793763,76.1402671 C87.0030534,77.1078147 87.7293569,78.0148906 88.6977616,78.8614947 C89.7266917,79.7080989 91.0582481,80.4942313 92.8134817,81.1594203 C94.326614,81.8246093 96.0213223,82.3688548 97.8976064,82.8526286 C99.7133652,83.3364024 101.529124,83.8806479 103.284358,84.5458369 C105.039591,85.2110259 106.552724,86.05763 107.88428,87.0856493 C109.457938,88.5369707 110.426342,89.8673487 111.031595,91.4396135 M52.382585,71.2420574 C52.2010091,72.0886616 52.0194332,72.6933788 51.8378573,73.1166809 C51.5957562,73.5399829 51.1115538,74.0237567 50.324725,74.5680023 C48.3879156,75.716965 46.3300556,76.6845126 44.151145,77.4101733 C41.9117091,78.135834 39.853849,78.9219665 37.795989,79.8290423 C35.7986543,80.6756465 34.0434208,81.885081 32.5302884,83.3364024 C31.0171561,84.7877238 30.1092766,86.7832907 29.7461249,89.4440466 C29.6250743,90.2906508 29.5040237,91.0767832 29.5040237,91.8024439 C29.4434984,92.5885763 29.4434984,93.314237 29.3224478,93.9189542 C29.2619225,94.0398977 29.1408719,94.1608411 29.0803466,94.2817846 C29.0198213,94.402728 28.9592961,94.5236715 28.8382455,94.6446149 C25.9330313,94.402728 23.0883425,94.1608411 20.1831284,93.8584825 C17.2779142,93.5561239 14.554276,93.1932935 12.1332642,92.8304632 C9.71225243,92.4676329 7.59386712,92.1048025 5.89915888,91.7419722 C4.20445063,91.3791418 3.17552063,91.0163115 2.69131827,90.6534811 C2.02554003,90.1092356 1.54133768,88.5974425 1.17818591,86.05763 C0.815034146,83.4573458 0.936084734,80.1918727 1.54133768,76.0797954 C1.90448945,73.8423416 2.87289416,72.0886616 4.32550122,70.8187553 C5.83863358,69.6697926 7.59386712,68.6417732 9.71225243,67.9765843 C11.7701124,67.2509236 13.8279724,66.6462063 16.0674083,66.0414891 C18.2463189,65.4972435 20.1831284,64.6506394 21.8173113,63.6226201 C23.1488678,62.7760159 24.1172725,61.9294118 24.843576,61.2037511 C25.5698796,60.4780904 25.9935566,59.6919579 26.3567084,58.9662972 C26.6593349,58.1801648 26.7803855,57.3940324 26.7803855,56.6079 C26.7803855,55.8217675 26.7198602,54.9146917 26.6593349,54.0076158 C26.5382843,52.4958227 25.9935566,51.4073316 25.1462025,50.5002558 C24.2988484,49.6536516 23.3304437,48.8070475 22.362039,47.8999716 C21.8173113,47.5371412 21.2725837,46.932424 20.8489066,46.1462916 C20.4857548,45.3601591 20.1226031,44.513555 19.8199766,43.7274226 C19.5173501,42.8808184 19.2752489,41.8527991 18.9726225,40.764308 C18.5489454,40.5828929 18.1252684,40.4014777 17.641066,40.0991191 C17.2779142,39.7967604 16.9147625,39.3734584 16.4910854,38.7687411 C16.1279336,38.2244956 15.7042566,37.3778914 15.3411048,36.3498721 C14.977953,35.3218528 14.7963772,34.3543052 14.9174277,33.4472293 C14.977953,32.5401535 15.1595289,31.754021 15.4621554,31.0888321 C15.7647819,30.3026996 16.1884589,29.5770389 16.612136,29.1537369 C16.5516107,26.7953396 16.6726613,24.3764706 16.9752878,22.0180733 C17.2779142,20.0225064 17.7621166,17.905996 18.4278948,15.6685422 C19.0936731,13.4310884 20.0620778,11.3750497 21.3936342,9.50042626 C22.5436148,7.74674623 23.8751713,6.29542484 25.3883037,5.20693379 C26.8409107,4.11844274 28.2935178,3.27183859 29.8671755,2.60664962 C31.3803078,2.00193237 32.8934402,1.57863029 34.4670978,1.33674339 C35.9802302,1.09485649 37.4933626,0.973913043 38.9459696,0.973913043 C42.6380126,0.973913043 45.9063785,1.76004547 48.8721179,3.27183859 C51.777332,4.78363171 54.0167679,6.47684001 55.5299003,8.23052003 C56.498305,9.43995453 57.103558,10.649389 57.3456591,11.6774084 C57.5877603,12.7054277 57.9509121,13.9753339 58.3745891,15.3661836 C56.9825074,16.152316 55.469375,17.3617505 53.8957174,18.9340153 C52.3220597,20.5062802 50.9905032,22.1390168 49.7799973,23.7112816 C48.3273903,25.7673203 47.1774097,28.0047741 46.4511061,30.4841148 C45.7248026,32.9634555 45.180075,35.2613811 44.8169232,37.4383632 C44.4537714,40.0386473 44.2721955,42.5179881 44.2721955,45.1182722 C43.7274679,45.7834612 43.2432655,46.5091219 42.9406391,47.2952543 C42.6380126,48.020915 42.4564367,48.9279909 42.3959114,49.8955385 C42.3353861,50.9235578 42.4564367,51.9515772 42.8195885,53.1005399 C43.1827402,54.3704461 43.6064173,55.3379937 43.9695691,55.942711 C44.3932461,56.6079 44.8169232,57.0916738 45.180075,57.4545041 C45.603752,57.8778062 46.0274291,58.1801648 46.5116314,58.3011083 C46.8142579,59.450071 47.0563591,60.5385621 47.3589856,61.6270531 C47.661612,62.4736573 48.0247638,63.4412049 48.3879156,64.3482808 C48.8115926,65.2553566 49.295795,65.9205456 49.9010479,66.4043194 C50.4457756,66.8276215 50.8089273,67.1904518 51.0510285,67.4928105 C51.353655,67.7951691 51.5957562,68.037056 51.777332,68.3394146 C51.9589079,68.5813015 52.0799585,68.9441319 52.1404838,69.3674339 C52.0799585,69.9116795 52.2010091,70.5163967 52.382585,71.2420574" id="形状" fill="#FFFFFF"></path>
                    <path d="M110.057682,90.4657005 C110.360309,91.4937198 110.60241,92.7031543 110.783986,94.2149474 C110.965562,95.6662688 111.026087,97.1780619 111.026087,98.6898551 C111.026087,100.201648 110.965562,101.592498 110.662935,102.922876 C110.420834,104.253254 110.118208,105.220801 109.634005,105.88599 C109.331379,106.309292 108.484025,106.732594 107.031418,107.216368 C105.57881,107.63967 103.823577,108.062972 101.705192,108.365331 C99.5868063,108.728161 97.2263198,109.090992 94.6237322,109.39335 C92.0211445,109.756181 89.4790821,109.998068 86.8764945,110.239955 C84.2739068,110.481841 81.7923698,110.602785 79.3108327,110.7842 C76.8898209,110.905144 74.7714356,111.026087 72.9556768,111.026087 C71.1399179,111.026087 69.0215326,110.965615 66.6005209,110.7842 C64.2400344,110.602785 61.7584973,110.42137 59.1559096,110.239955 C56.553322,109.998068 54.0717849,109.756181 51.5902478,109.514294 C49.1087108,109.272407 46.8087496,108.970048 44.6903643,108.66769 C42.571979,108.304859 40.8772707,108.002501 39.4246637,107.63967 C37.9720566,107.27684 37.1247025,106.974481 36.7010254,106.672123 C36.1562978,106.127877 35.6720954,104.616084 35.2484183,102.076272 C34.8852666,99.4759875 35.0063172,96.2105144 35.6115701,92.1589088 C35.9747219,89.8005115 36.9431266,88.0468315 38.3957336,86.8978687 C39.908866,85.7489059 41.6640995,84.7813583 43.7219596,83.9952259 C45.7798196,83.2695652 47.8376796,82.664848 50.0771155,82.0601307 C52.2560261,81.5158852 54.1928355,80.7297528 55.8270184,79.58079 C57.1585749,78.7341858 58.1269796,77.8875817 58.8532832,77.161921 C59.5795867,76.4362603 60.0032638,75.6501279 60.3664155,74.9849389 C60.7295673,74.2592782 60.8506179,73.4731458 60.8506179,72.6870134 C60.8506179,71.9008809 60.7900926,70.9938051 60.7295673,69.9657857 C60.5479914,68.5144643 60.0637891,67.3655016 59.2164349,66.4584257 C58.3690808,65.6118215 57.4006761,64.8256891 56.3112208,63.979085 C55.7664931,63.5557829 55.3428161,62.9510656 54.9796643,62.1044615 C54.6165126,61.3183291 54.2533608,60.4717249 53.9507343,59.6855925 C53.6481078,58.8389883 53.4060067,57.810969 53.1033802,56.722478 C52.6797031,56.5410628 52.2560261,56.3596476 51.7718237,56.057289 C51.408672,55.7549304 51.0455202,55.3316283 50.6218431,54.7269111 C50.1981661,54.1826655 49.8350143,53.3360614 49.4718625,52.3080421 C49.1087108,51.2800227 48.9271349,50.3124751 49.0481855,49.4053993 C49.1087108,48.4983234 49.2902866,47.7726627 49.5929131,47.1679454 C49.8955396,46.4422847 50.3192167,45.7770958 50.7428937,45.2328502 C50.6823684,42.874453 50.803419,40.455584 51.1060455,38.0971867 C51.408672,36.0411481 51.832349,33.9246377 52.437602,31.6267121 C53.0428549,29.3892583 54.0112596,27.3332197 55.3428161,25.3981245 C56.4927967,23.6444444 57.8243532,22.193123 59.3374855,21.104632 C60.7900926,20.0161409 62.3032249,19.1695368 63.8163573,18.5043478 C65.3294897,17.8996306 66.9031473,17.4763285 68.4162797,17.2344416 C69.929412,16.9925547 71.4425444,16.8716113 72.8346262,16.8716113 C76.5871944,16.8716113 79.9160856,17.6577437 82.881825,19.1695368 C85.7870392,20.6813299 87.9659498,22.3745382 89.3580316,24.0677465 C90.9922145,26.0633134 92.1421951,28.2402955 92.9290239,30.7196363 C93.7158528,33.1385053 94.2605804,35.4969025 94.6237322,37.5529412 C94.9868839,40.0322819 95.1684598,42.5116226 95.0474092,44.9909633 C95.410561,45.293322 95.7737128,45.716624 96.0763392,46.1399261 C96.3184404,46.5632282 96.5000163,47.1679454 96.6815922,47.8331344 C96.8631681,48.5587951 96.9236934,49.4053993 96.7421175,50.4334186 C96.5605416,51.7637965 96.3184404,52.8522876 95.8947634,53.63842 C95.4710863,54.4245524 95.0474092,55.0897414 94.5632069,55.5130435 C94.0184792,56.057289 93.4737516,56.3596476 92.8079733,56.5410628 C92.5053469,57.6295539 92.2632457,58.6575732 91.9606192,59.5041773 C91.6579927,60.2903097 91.294841,61.1369139 90.8711639,61.9230463 C90.4474869,62.7091787 89.9632845,63.313896 89.4790821,63.6767263 C88.9343545,64.2209719 88.3291015,64.6442739 87.8448992,65.0071043 C87.3606968,65.3699346 86.9975451,65.732765 86.573868,66.1560671 C86.2107162,66.5188974 85.8475645,67.0026712 85.6659886,67.486445 C85.4238874,68.0306905 85.1817862,68.6354078 85.0607356,69.3610685 C84.9396851,70.3286161 84.8186345,71.2961637 84.8791598,72.2637113 C84.9396851,73.2917306 85.1212609,74.1988065 85.6054633,75.1663541 C86.0291404,76.1339017 86.7554439,77.0409776 87.7238486,77.8875817 C88.7527786,78.7341858 90.0843351,79.5203183 91.8395686,80.1855072 C93.352701,80.8506962 95.0474092,81.3949417 96.9236934,81.8787155 C98.7394522,82.3624893 100.555211,82.9067349 102.310445,83.5719238 C104.065678,84.2371128 105.57881,85.083717 106.910367,86.1117363 C108.484025,87.5630577 109.452429,88.8934356 110.057682,90.4657005 M51.408672,70.2681444 C51.2270961,71.1147485 51.0455202,71.7194658 50.8639443,72.1427678 C50.6218431,72.5660699 50.1376408,73.0498437 49.3508119,73.5940892 C47.4140025,74.743052 45.3561425,75.7105996 43.1772319,76.4362603 C40.937796,77.161921 38.879936,77.9480534 36.822076,78.8551293 C34.8247413,79.7017334 33.0695077,80.9111679 31.5563754,82.3624893 C30.043243,83.8138107 29.1353636,85.8093777 28.7722118,88.4701336 C28.6511612,89.3167377 28.5301107,90.1028701 28.5301107,90.8285308 C28.4695854,91.6146633 28.4695854,92.340324 28.3485348,92.9450412 C28.2880095,93.0659847 28.1669589,93.1869281 28.1064336,93.3078716 C28.0459083,93.428815 27.985383,93.5497585 27.8643324,93.6707019 C24.9591183,93.428815 22.1144294,93.1869281 19.2092153,92.8845695 C16.3040012,92.5822109 13.5803629,92.2193805 11.1593512,91.8565502 C8.73833938,91.4937198 6.61995408,91.1308895 4.92524583,90.7680591 C3.23053759,90.4052288 2.20160758,90.0423984 1.71740523,89.6795681 C1.05162699,89.1353225 0.567424635,87.6235294 0.204272869,85.083717 C-0.158878898,82.4834328 -0.037828309,79.2179596 0.567424635,75.1058824 C0.930576402,72.8684285 1.89898111,71.1147485 3.35158818,69.8448423 C4.86472054,68.6958795 6.61995408,67.6678602 8.73833938,67.0026712 C10.7961994,66.2770105 12.8540594,65.6722933 15.0934953,65.067576 C17.2724059,64.5233305 19.2092153,63.6767263 20.8433983,62.648707 C22.1749547,61.8021029 23.1433595,60.9554987 23.869663,60.229838 C24.5959665,59.5041773 25.0196436,58.7180449 25.3827953,57.9923842 C25.6854218,57.2062518 25.8064724,56.4201194 25.8064724,55.6339869 C25.8064724,54.8478545 25.7459471,53.9407786 25.6854218,53.0337028 C25.5643712,51.5219096 25.0196436,50.4334186 24.1722895,49.5263427 C23.3249353,48.6797386 22.3565306,47.8331344 21.3881259,46.9260585 C20.8433983,46.5632282 20.2986706,45.9585109 19.8749936,45.1723785 C19.5118418,44.3862461 19.14869,43.5396419 18.8460636,42.7535095 C18.5434371,41.9069054 18.3013359,40.878886 17.9987094,39.790395 C17.5750324,39.6089798 17.1513553,39.4275646 16.667153,39.125206 C16.3040012,38.8228474 15.9408494,38.3995453 15.5171724,37.7948281 C15.1540206,37.2505826 14.7303435,36.4039784 14.3671918,35.3759591 C14.00404,34.3479398 13.8224641,33.3803922 13.9435147,32.4733163 C14.00404,31.5662404 14.1856159,30.780108 14.4882424,30.114919 C14.7908688,29.3287866 15.2145459,28.6031259 15.6382229,28.1798238 C15.5776977,25.8214265 15.6987482,23.4025575 16.0013747,21.0441603 C16.3040012,19.0485934 16.7882035,16.932083 17.4539818,14.6946292 C18.11976,12.4571753 19.0881647,10.4011367 20.4197212,8.52651321 C21.5697018,6.77283319 22.9012583,5.32151179 24.4143906,4.23302074 C25.8669977,3.1445297 27.3196048,2.29792555 28.8932624,1.63273657 C30.4063948,1.02801932 31.9195271,0.604717249 33.4931848,0.36283035 C35.0063172,0.12094345 36.5194495,0 37.9720566,0 C41.6640995,0 44.9324654,0.786132424 47.8982049,2.29792555 C50.803419,3.80971867 53.0428549,5.50292697 54.5559873,7.25660699 C55.524392,8.46604149 56.1296449,9.67547599 56.3717461,10.7034953 C56.6138473,11.7315146 56.976999,13.0014209 57.4006761,14.3922705 C56.0085943,15.178403 54.495462,16.3878375 52.9218043,17.9601023 C51.3481467,19.5323671 50.0165902,21.1651037 48.8060843,22.7373686 C47.3534772,24.7934072 46.2034966,27.030861 45.4771931,29.5102018 C44.7508896,31.9895425 44.2061619,34.287468 43.8430101,36.4644501 C43.4798584,39.0647343 43.2982825,41.544075 43.2982825,44.1443592 C42.7535548,44.8095482 42.2693525,45.5352089 41.966726,46.3213413 C41.6640995,47.047002 41.4825237,47.9540779 41.4219984,48.9216255 C41.3614731,49.9496448 41.4825237,50.9776641 41.8456754,52.1266269 C42.2088272,53.3965331 42.6325043,54.3640807 42.995656,54.968798 C43.4193331,55.6339869 43.8430101,56.1177607 44.2061619,56.4805911 C44.629839,56.9038932 45.053516,57.2062518 45.5377184,57.3271952 C45.8403449,58.476158 46.082446,59.564649 46.3850725,60.6531401 C46.687699,61.4997442 47.0508508,62.4672918 47.4140025,63.3743677 C47.8376796,64.2814436 48.3218819,64.9466326 48.9271349,65.4304064 C49.4718625,65.8537084 49.8350143,66.2165388 50.0771155,66.5188974 C50.3797419,66.821256 50.6218431,67.0631429 50.803419,67.3655016 C50.9849949,67.6073885 51.1060455,67.9702188 51.1665708,68.3935209 C51.1060455,68.9377664 51.2270961,69.5424837 51.408672,70.2681444" id="形状" fill="#266AEE"></path>
                </g>
            </g>
        </g>
    </g>
</svg>