<?xml version="1.0" encoding="UTF-8"?>
<svg width="116px" height="116px" viewBox="0 0 116 116" version="1.1" xmlns="http://www.w3.org/2000/svg" xmlns:xlink="http://www.w3.org/1999/xlink">
    <title>国际规范</title>
    <g id="0707" stroke="none" stroke-width="1" fill="none" fill-rule="evenodd">
        <g id="板块首页备份-3" transform="translate(-1196.000000, -564.000000)">
            <g id="国际规范" transform="translate(1196.000000, 564.000000)">
                <rect id="矩形备份-3" x="0" y="0" width="116" height="116"></rect>
                <g id="编组-6" transform="translate(13.000000, 7.000000)" fill-rule="nonzero">
                    <path d="M70.1369661,81.6826576 L21.7818483,81.6826576 C20.6933704,81.6718883 19.646191,82.0834156 18.8763245,82.824489 C18.1064579,83.5655624 17.6786905,84.5738188 17.6892187,85.6220161 C17.6782423,86.6704887 18.1058118,87.6791593 18.8757277,88.4205805 C19.6456437,89.1620017 20.6930802,89.5737467 21.7818483,89.5629702 L70.1369661,89.5629702 C71.2254484,89.573315 72.2724548,89.1613794 73.0420096,88.4200058 C73.8115644,87.6786323 74.2389078,86.6702092 74.2279387,85.6220161 C74.2222597,83.4476709 72.3932203,81.6863247 70.1353093,81.6810621 L70.1369661,81.6826576 Z M86.9075847,8.5628025 C85.8193926,8.5524647 84.7726432,8.96418258 84.0031378,9.70520843 C83.2336324,10.4462343 82.8060911,11.4542432 82.8168262,12.502161 L82.8168262,85.7783779 C82.8168262,90.979799 78.3996686,95.2334765 72.9983432,95.2334765 L19,95.2334765 C13.5986745,95.2334765 9.18151694,90.9782035 9.18151694,85.7783779 L9.18151694,84.9901871 C9.18151694,79.7887659 13.5986745,75.5350884 19,75.5350884 L68.0924153,75.5350884 C71.7023392,75.5245753 74.6260489,72.7090727 74.6369661,69.232753 L74.6369661,13.6046708 C74.6369661,6.67369741 68.7452135,1 61.5462077,1 L14.0891016,1 C6.89009573,1 1,6.67369741 1,13.6062664 L1,90.5091182 C1,97.4416872 6.89009573,103.115385 14.0891016,103.115385 L73.4920839,103.115385 C83.146539,103.115385 91,95.5525821 91,86.2538452 L91,12.5037566 C90.994539,10.3300321 89.1665055,8.56894159 86.9092415,8.5628025 L86.9075847,8.5628025 Z M29.3900957,32.2021447 L31.8455449,32.2021447 C32.748213,32.1995123 33.4790348,31.4950254 33.4808542,30.6257631 L33.4808542,28.4191479 C33.4808542,26.37049 35.0366348,24.5579702 37.164028,24.3218321 C39.6178203,24.085694 41.664028,25.9763946 41.664028,28.2627862 L41.664028,30.6241675 C41.6649363,31.4940528 42.3960237,32.1995091 43.2993373,32.2021447 L45.7547865,32.2021447 C48.1273932,32.2021447 50.0907585,34.1710262 49.8455449,36.5355986 C49.6815169,38.5842565 47.7181517,40.0808617 45.5907585,40.0808617 L43.2993373,40.0808617 C42.3973138,40.08349 41.6667573,40.7870085 41.664028,41.6556478 L41.664028,43.862263 C41.664028,45.9109209 40.1082474,47.7234406 37.9808542,47.9595788 C35.5270619,48.1957169 33.4808542,46.3050163 33.4808542,44.0202202 L33.4808542,41.6556478 C33.4781249,40.7870085 32.7475684,40.08349 31.8455449,40.0808617 L29.5541237,40.0808617 C27.4267305,40.0808617 25.5445508,38.5842565 25.2993373,36.5355986 C25.0541237,34.1710262 27.017489,32.2021447 29.3917526,32.2021447 L29.3900957,32.2021447 Z" id="形状" fill="#FFFFFF"></path>
                    <path d="M69.1369661,80.6826576 L20.7818483,80.6826576 C19.6933704,80.6718883 18.646191,81.0834156 17.8763245,81.824489 C17.1064579,82.5655624 16.6786905,83.5738188 16.6892187,84.6220161 C16.6782423,85.6704887 17.1058118,86.6791593 17.8757277,87.4205805 C18.6456437,88.1620017 19.6930802,88.5737467 20.7818483,88.5629702 L69.1369661,88.5629702 C70.2254484,88.573315 71.2724548,88.1613794 72.0420096,87.4200058 C72.8115644,86.6786323 73.2389078,85.6702092 73.2279387,84.6220161 C73.2222597,82.4476709 71.3932203,80.6863247 69.1353093,80.6810621 L69.1369661,80.6826576 Z M85.9075847,7.5628025 C84.8193926,7.5524647 83.7726432,7.96418258 83.0031378,8.70520843 C82.2336324,9.44623428 81.8060911,10.4542432 81.8168262,11.502161 L81.8168262,84.7783779 C81.8168262,89.979799 77.3996686,94.2334765 71.9983432,94.2334765 L18,94.2334765 C12.5986745,94.2334765 8.18151694,89.9782035 8.18151694,84.7783779 L8.18151694,83.9901871 C8.18151694,78.7887659 12.5986745,74.5350884 18,74.5350884 L67.0924153,74.5350884 C70.7023392,74.5245753 73.6260489,71.7090727 73.6369661,68.232753 L73.6369661,12.6046708 C73.6369661,5.67369741 67.7452135,0 60.5462077,0 L13.0891016,0 C5.89009573,0 0,5.67369741 0,12.6062664 L0,89.5091182 C0,96.4416872 5.89009573,102.115385 13.0891016,102.115385 L72.4920839,102.115385 C82.146539,102.115385 90,94.5525821 90,85.2538452 L90,11.5037566 C89.994539,9.33003214 88.1665055,7.56894159 85.9092415,7.5628025 L85.9075847,7.5628025 Z M28.3900957,31.2021447 L30.8455449,31.2021447 C31.748213,31.1995123 32.4790348,30.4950254 32.4808542,29.6257631 L32.4808542,27.4191479 C32.4808542,25.37049 34.0366348,23.5579702 36.164028,23.3218321 C38.6178203,23.085694 40.664028,24.9763946 40.664028,27.2627862 L40.664028,29.6241675 C40.6649363,30.4940528 41.3960237,31.1995091 42.2993373,31.2021447 L44.7547865,31.2021447 C47.1273932,31.2021447 49.0907585,33.1710262 48.8455449,35.5355986 C48.6815169,37.5842565 46.7181517,39.0808617 44.5907585,39.0808617 L42.2993373,39.0808617 C41.3973138,39.08349 40.6667573,39.7870085 40.664028,40.6556478 L40.664028,42.862263 C40.664028,44.9109209 39.1082474,46.7234406 36.9808542,46.9595788 C34.5270619,47.1957169 32.4808542,45.3050163 32.4808542,43.0202202 L32.4808542,40.6556478 C32.4781249,39.7870085 31.7475684,39.08349 30.8455449,39.0808617 L28.5541237,39.0808617 C26.4267305,39.0808617 24.5445508,37.5842565 24.2993373,35.5355986 C24.0541237,33.1710262 26.017489,31.2021447 28.3917526,31.2021447 L28.3900957,31.2021447 Z" id="形状" fill="#DF841E"></path>
                </g>
            </g>
        </g>
    </g>
</svg>