<?xml version="1.0" encoding="UTF-8"?>
<svg width="20px" height="20px" viewBox="0 0 20 20" version="1.1" xmlns="http://www.w3.org/2000/svg" xmlns:xlink="http://www.w3.org/1999/xlink">
    <title>慢病管理</title>
    <g id="健康中国" stroke="none" stroke-width="1" fill="none" fill-rule="evenodd">
        <g id="卒中科普" transform="translate(-1386.000000, -183.000000)">
            <g id="慢病管理" transform="translate(1386.000000, 183.000000)">
                <rect id="矩形" x="0" y="0" width="20" height="20"></rect>
                <path d="M19.2796896,15.9465021 C19.3311755,16.1213992 19.3723642,16.3271605 19.4032557,16.5843621 C19.4341473,16.8312757 19.4444444,17.0884774 19.4444444,17.345679 C19.4444444,17.6028807 19.4341473,17.8395062 19.3826614,18.0658436 C19.3414726,18.2921811 19.2899867,18.4567901 19.2076093,18.5699588 C19.1561234,18.6419753 19.0119629,18.7139918 18.7648306,18.7962963 C18.5176983,18.8683128 18.2190801,18.9403292 17.8586788,18.9917695 C17.4982775,19.0534979 17.0966875,19.1152263 16.6539088,19.1666667 C16.21113,19.2283951 15.7786485,19.2695473 15.3358698,19.3106996 C14.893091,19.3518519 14.4709067,19.372428 14.0487223,19.4032922 C13.6368351,19.4238683 13.2764338,19.4444444 12.9675185,19.4444444 C12.6586031,19.4444444 12.2982018,19.4341564 11.8863146,19.4032922 C11.4847246,19.372428 11.0625402,19.3415638 10.6197615,19.3106996 C10.1769828,19.2695473 9.75479841,19.2283951 9.33261405,19.1872428 C8.91042968,19.1460905 8.51913685,19.0946502 8.15873557,19.0432099 C7.79833428,18.9814815 7.51001325,18.9300412 7.26288094,18.8683128 C7.01574863,18.8065844 6.87158811,18.755144 6.79950786,18.7037037 C6.70683324,18.6111111 6.6244558,18.3539095 6.55237554,17.9218107 C6.49059247,17.4794239 6.51118683,16.9238683 6.61415862,16.2345679 C6.6759417,15.8333333 6.84069657,15.5349794 7.08782889,15.3395062 C7.34525838,15.1440329 7.64387659,14.9794239 7.99398069,14.845679 C8.3440848,14.7222222 8.69418891,14.6193416 9.07518455,14.5164609 C9.44588302,14.4238683 9.77539277,14.2901235 10.0534166,14.0946502 C10.2799546,13.9506173 10.4447094,13.8065844 10.5682756,13.6831276 C10.6918418,13.5596708 10.763922,13.4259259 10.8257051,13.3127572 C10.8874882,13.1893004 10.9080825,13.0555556 10.9080825,12.9218107 C10.9080825,12.7880658 10.8977853,12.6337449 10.8874882,12.4588477 C10.8565966,12.2119342 10.7742192,12.0164609 10.6300587,11.8621399 C10.4858982,11.718107 10.3211433,11.5843621 10.1357941,11.4403292 C10.0431194,11.3683128 9.97103918,11.2654321 9.9092561,11.1213992 C9.84747303,10.9876543 9.78568995,10.8436214 9.73420405,10.7098765 C9.68271815,10.5658436 9.64152943,10.3909465 9.59004354,10.2057613 C9.51796328,10.1748971 9.44588302,10.1440329 9.36350558,10.0925926 C9.30172251,10.0411523 9.23993943,9.9691358 9.16785917,9.86625514 C9.09577891,9.77366255 9.03399584,9.62962963 8.97221276,9.45473251 C8.91042968,9.27983539 8.87953814,9.11522634 8.9001325,8.96090535 C8.91042968,8.80658436 8.94132122,8.68312757 8.99280712,8.58024691 C9.04429302,8.45679012 9.11637327,8.3436214 9.18845353,8.25102881 C9.17815635,7.84979424 9.19875071,7.4382716 9.25023661,7.03703704 C9.30172251,6.6872428 9.37380276,6.32716049 9.47677456,5.93621399 C9.57974636,5.55555556 9.74450123,5.20576132 9.97103918,4.87654321 C10.1666856,4.5781893 10.3932235,4.33127572 10.650653,4.14609053 C10.8977853,3.96090535 11.1552148,3.81687243 11.4126443,3.7037037 C11.6700738,3.60082305 11.9378005,3.52880658 12.19523,3.48765432 C12.4526595,3.44650206 12.710089,3.42592593 12.9469241,3.42592593 C13.5853492,3.42592593 14.1516941,3.55967078 14.6562559,3.81687243 C15.1505205,4.07407407 15.521219,4.36213992 15.7580541,4.65020576 C16.036078,4.98971193 16.2317244,5.3600823 16.3655877,5.781893 C16.4994511,6.19341564 16.5921257,6.59465021 16.6539088,6.94444444 C16.7156918,7.36625514 16.7465834,7.78806584 16.725989,8.20987654 C16.7877721,8.26131687 16.8495552,8.33333333 16.9010411,8.40534979 C16.9422298,8.47736626 16.9731213,8.58024691 17.0040129,8.69341564 C17.0349044,8.81687243 17.0452016,8.96090535 17.0143101,9.13580247 C16.9834185,9.36213992 16.9422298,9.5473251 16.8701495,9.68106996 C16.7980693,9.81481481 16.725989,9.92798354 16.6436116,10 C16.550937,10.0925926 16.4582624,10.1440329 16.3449934,10.1748971 C16.2935075,10.3600823 16.2523188,10.5349794 16.2008329,10.6790123 C16.149347,10.8127572 16.0875639,10.9567901 16.0154836,11.090535 C15.9434034,11.2242798 15.8610259,11.3271605 15.7786485,11.3888889 C15.6859739,11.4814815 15.5830021,11.5534979 15.5006246,11.6152263 C15.4182472,11.6769547 15.3564641,11.7386831 15.2843839,11.8106996 C15.2226008,11.872428 15.1608177,11.9547325 15.1299262,12.037037 C15.0887375,12.1296296 15.0475487,12.2325103 15.0269544,12.3559671 C15.00636,12.5205761 14.9857657,12.6851852 14.9960628,12.8497942 C15.00636,13.0246914 15.0372516,13.1790123 15.119629,13.3436214 C15.1917093,13.5082305 15.3152754,13.6625514 15.4800303,13.8065844 C15.6550823,13.9506173 15.8816203,14.0843621 16.1802385,14.1975309 C16.437668,14.3106996 16.725989,14.4032922 17.0452016,14.4855967 C17.354117,14.5679012 17.6630324,14.6604938 17.9616506,14.7736626 C18.2602688,14.8868313 18.5176983,15.0308642 18.7442362,15.2057613 C19.0119629,15.4526749 19.1767178,15.6790123 19.2796896,15.9465021 M9.30172251,12.5102881 C9.27083097,12.654321 9.23993943,12.7572016 9.20904789,12.8292181 C9.16785917,12.9012346 9.08548173,12.9835391 8.9516184,13.0761317 C8.62210865,13.2716049 8.27200454,13.436214 7.90130608,13.5596708 C7.52031043,13.6831276 7.17020632,13.8168724 6.82010221,13.9711934 C6.48029529,14.1152263 6.18167708,14.3209877 5.92424759,14.5679012 C5.6668181,14.8148148 5.5123604,15.154321 5.45057732,15.6069959 C5.42998296,15.7510288 5.4093886,15.8847737 5.4093886,16.0082305 C5.39909143,16.1419753 5.39909143,16.2654321 5.37849707,16.3683128 C5.36819989,16.3888889 5.34760553,16.409465 5.33730835,16.4300412 C5.32701117,16.4506173 5.31671399,16.4711934 5.29611963,16.4917695 C4.80185501,16.4506173 4.31788756,16.409465 3.82362294,16.3580247 C3.32935832,16.3065844 2.86598524,16.244856 2.45409805,16.1831276 C2.04221087,16.1213992 1.68180958,16.0596708 1.39348855,15.9979424 C1.10516752,15.936214 0.930115465,15.8744856 0.847738028,15.8127572 C0.734469052,15.7201646 0.652091615,15.462963 0.590308537,15.0308642 C0.528525459,14.5884774 0.549119818,14.0329218 0.652091615,13.3333333 C0.713874692,12.9526749 0.878629567,12.654321 1.12576188,12.4382716 C1.38319137,12.2427984 1.68180958,12.0679012 2.04221087,11.9547325 C2.39231497,11.8312757 2.74241908,11.7283951 3.12341473,11.6255144 C3.49411319,11.5329218 3.82362294,11.3888889 4.10164679,11.2139918 C4.32818474,11.0699588 4.49293962,10.9259259 4.61650577,10.8024691 C4.74007193,10.6790123 4.81215219,10.5452675 4.87393526,10.4218107 C4.92542116,10.2880658 4.94601552,10.154321 4.94601552,10.0205761 C4.94601552,9.88683128 4.93571834,9.73251029 4.92542116,9.5781893 C4.9048268,9.32098765 4.81215219,9.13580247 4.66799167,8.98148148 C4.52383116,8.83744856 4.35907628,8.69341564 4.19432141,8.53909465 C4.10164679,8.47736626 4.00897217,8.3744856 3.93689192,8.24074074 C3.87510884,8.10699588 3.81332576,7.96296296 3.76183986,7.82921811 C3.71035397,7.68518519 3.66916525,7.51028807 3.61767935,7.32510288 C3.54559909,7.29423868 3.47351883,7.26337449 3.3911414,7.21193416 C3.32935832,7.16049383 3.26757524,7.08847737 3.19549498,6.98559671 C3.13371191,6.89300412 3.06163165,6.74897119 2.99984857,6.57407407 C2.93806549,6.39917695 2.90717395,6.2345679 2.92776831,6.08024691 C2.93806549,5.92592593 2.96895703,5.79218107 3.02044293,5.67901235 C3.07192883,5.54526749 3.14400909,5.4218107 3.21608934,5.34979424 C3.20579216,4.94855967 3.22638652,4.53703704 3.27787242,4.13580247 C3.32935832,3.7962963 3.41173576,3.43621399 3.52500473,3.05555556 C3.63827371,2.67489712 3.80302858,2.32510288 4.02956653,2.00617284 C4.22521295,1.70781893 4.4517509,1.46090535 4.70918039,1.27572016 C4.9563127,1.09053498 5.20344501,0.946502058 5.47117168,0.833333333 C5.72860117,0.730452675 5.98603066,0.658436214 6.25375733,0.617283951 C6.51118683,0.576131687 6.76861632,0.555555556 7.01574863,0.555555556 C7.64387659,0.555555556 8.19992429,0.689300412 8.70448609,0.946502058 C9.19875071,1.2037037 9.57974636,1.49176955 9.83717585,1.79012346 C10.0019307,1.99588477 10.1049025,2.20164609 10.1460912,2.37654321 C10.18728,2.55144033 10.249063,2.76748971 10.3211433,3.00411523 C10.0843082,3.13786008 9.82687867,3.3436214 9.559152,3.61111111 C9.29142533,3.87860082 9.06488737,4.1563786 8.85894378,4.42386831 C8.61181147,4.77366255 8.41616506,5.15432099 8.2925989,5.57613169 C8.16903275,5.99794239 8.07635813,6.38888889 8.01457505,6.75925926 C7.95279197,7.20164609 7.92190044,7.62345679 7.92190044,8.06584362 C7.82922582,8.17901235 7.74684838,8.30246914 7.69536248,8.43621399 C7.64387659,8.55967078 7.61298505,8.71399177 7.60268787,8.87860082 C7.59239069,9.05349794 7.61298505,9.22839506 7.67476812,9.42386831 C7.7365512,9.6399177 7.80863146,9.80452675 7.87041454,9.90740741 C7.94249479,10.0205761 8.01457505,10.1028807 8.07635813,10.1646091 C8.14843839,10.2366255 8.22051864,10.2880658 8.30289608,10.308642 C8.35438198,10.5041152 8.3955707,10.6893004 8.4470566,10.8744856 C8.49854249,11.0185185 8.56032557,11.1831276 8.62210865,11.3374486 C8.69418891,11.4917695 8.77656634,11.6049383 8.87953814,11.6872428 C8.97221276,11.7592593 9.03399584,11.8209877 9.07518455,11.872428 C9.12667045,11.9238683 9.16785917,11.9650206 9.19875071,12.0164609 C9.22964225,12.0576132 9.25023661,12.1193416 9.26053379,12.191358 C9.25023661,12.2839506 9.27083097,12.3868313 9.30172251,12.5102881" id="形状备份" fill="#FFFFFF" fill-rule="nonzero"></path>
            </g>
        </g>
    </g>
</svg>