<?xml version="1.0" encoding="UTF-8"?>
<svg width="14px" height="14px" viewBox="0 0 14 14" version="1.1" xmlns="http://www.w3.org/2000/svg" xmlns:xlink="http://www.w3.org/1999/xlink">
    <title>语音播报</title>
    <g id="健康中国" stroke="none" stroke-width="1" fill="none" fill-rule="evenodd">
        <g id="卒中科普" transform="translate(-1292.000000, -727.000000)" fill="#999999" fill-rule="nonzero">
            <g id="语音播报" transform="translate(1292.000000, 727.000000)">
                <rect id="矩形" opacity="0" x="0" y="0" width="14" height="14"></rect>
                <path d="M6.9671875,12.8351563 C6.67050781,12.8351563 6.34238281,12.6574219 5.99101563,12.3074219 L3.40703125,9.72207031 L2.23671875,9.72207031 C1.4875,9.72207031 0.879101563,9.11230469 0.879101563,8.36445312 L0.879101563,5.64648438 C0.879101563,4.89726562 1.48886719,4.28886719 2.23671875,4.28886719 L3.40703125,4.28886719 L5.99101563,1.70488281 C6.33828125,1.35761719 6.66640625,1.18125 6.96582031,1.18125 C7.28984375,1.18125 7.66992188,1.40273437 7.66992188,2.02480469 L7.66992188,11.9847656 C7.66855469,12.6123047 7.29121094,12.8351563 6.9671875,12.8351563 Z M2.23671875,5.19394531 C1.98789063,5.19394531 1.78417969,5.39765625 1.78417969,5.64648438 L1.78417969,8.36308594 C1.78417969,8.61328125 1.98789063,8.815625 2.23671875,8.815625 L3.59433594,8.815625 C3.71464844,8.815625 3.82949219,8.86347656 3.91425781,8.94824219 L6.63222656,11.6662109 C6.68007812,11.7140625 6.72382813,11.7537109 6.76347656,11.7878906 L6.76347656,2.22304688 C6.71699219,2.26132813 6.67324219,2.30234375 6.63085938,2.34472656 L3.91425781,5.06132813 C3.82949219,5.14609375 3.71464844,5.19394531 3.59433594,5.19394531 L2.23671875,5.19394531 Z M9.24765625,10.0953125 C9.15332031,10.0953125 9.06035156,10.0652344 8.98378906,10.0105469 C8.78144531,9.86425781 8.73496094,9.58125 8.87988281,9.37890625 L9.05898438,9.13417969 C9.52792969,8.4984375 9.93261719,7.95019531 9.93261719,7.00683594 C9.93261719,6.03066406 9.57441406,5.55625 9.12050781,4.95605469 C9.03984375,4.85078125 8.96054688,4.74414062 8.88125,4.63339844 C8.73496094,4.43105469 8.78144531,4.14804687 8.98515625,4.00175781 C9.18886719,3.85546875 9.47050781,3.90195312 9.61679688,4.10566406 C9.690625,4.20957031 9.7671875,4.31074219 9.84238281,4.41054687 C10.3318359,5.05859375 10.8390625,5.72714844 10.8390625,7.00683594 C10.8390625,8.246875 10.28125,9.00292969 9.79042969,9.67148437 L9.61679688,9.90800781 C9.52792969,10.0296875 9.38847656,10.0953125 9.24765625,10.0953125 L9.24765625,10.0953125 Z" id="形状"></path>
                <path d="M10.7884766,11.6320312 C10.6791016,11.6320312 10.5724609,11.5923828 10.4904297,11.5199219 C10.303125,11.3544922 10.2839844,11.06875 10.4480469,10.8814453 C11.3572266,9.84511719 12.1966797,8.65976562 12.1966797,7.00546875 C12.1966797,5.35253906 11.3558594,4.16582031 10.4480469,3.13085937 C10.2826172,2.9421875 10.3017578,2.65644531 10.4904297,2.49101562 C10.6777344,2.32558594 10.9634766,2.34472656 11.1289063,2.53203125 C12.1050781,3.64492187 13.1017578,5.04628906 13.1017578,7.00410156 C13.1017578,8.96191406 12.1037109,10.3632812 11.1289063,11.4761719 C11.0386719,11.5800781 10.9128906,11.6320312 10.7884766,11.6320312 L10.7884766,11.6320312 Z" id="路径"></path>
            </g>
        </g>
    </g>
</svg>