<?xml version="1.0" encoding="UTF-8"?>
<svg width="116px" height="116px" viewBox="0 0 116 116" version="1.1" xmlns="http://www.w3.org/2000/svg" xmlns:xlink="http://www.w3.org/1999/xlink">
    <title>卒中预防</title>
    <g id="0707" stroke="none" stroke-width="1" fill="none" fill-rule="evenodd">
        <g id="板块首页备份-3" transform="translate(-804.000000, -564.000000)">
            <g id="卒中预防" transform="translate(804.000000, 564.000000)">
                <rect id="矩形备份" x="0" y="0" width="116" height="116"></rect>
                <g id="编组-4" transform="translate(12.560970, 1.359940)" fill-rule="nonzero">
                    <path d="M47.0764375,1 L46.5871302,1 C35.2922867,14.7277882 10.1473282,12.1317411 1,11.9006793 L1,59.2275688 C1,98.1954586 46.8317839,113.812517 46.8317839,113.812517 C46.8317839,113.812517 92.6635678,98.6439903 92.6635678,59.2275688 L92.6635678,11.9006793 C79.5881893,12.2268842 58.3712811,14.7277882 47.0764375,1 Z M67.9807328,62.6934956 L52.1190211,62.6934956 L52.1190211,78.5552072 L41.5445467,78.5552072 L41.5445467,62.6934956 L25.6692431,62.6934956 L25.6692431,52.1190211 L41.5309548,52.1190211 L41.5309548,36.2573094 L52.1054292,36.2573094 L52.1054292,52.1190211 L67.9671409,52.1190211 L67.9671409,62.6934956 L67.9807328,62.6934956 Z" id="形状" fill="#FFFFFF"></path>
                    <path d="M46.0764375,0 L45.5871302,0 C34.2922867,13.7277882 9.14732816,11.1317411 1.13686838e-13,10.9006793 L1.13686838e-13,58.2275688 C1.13686838e-13,97.1954586 45.8317839,112.812517 45.8317839,112.812517 C45.8317839,112.812517 91.6635678,97.6439903 91.6635678,58.2275688 L91.6635678,10.9006793 C78.5881893,11.2268842 57.3712811,13.7277882 46.0764375,0 Z M66.9807328,61.6934956 L51.1190211,61.6934956 L51.1190211,77.5552072 L40.5445467,77.5552072 L40.5445467,61.6934956 L24.6692431,61.6934956 L24.6692431,51.1190211 L40.5309548,51.1190211 L40.5309548,35.2573094 L51.1054292,35.2573094 L51.1054292,51.1190211 L66.9671409,51.1190211 L66.9671409,61.6934956 L66.9807328,61.6934956 Z" id="形状" fill="#4B8EFF"></path>
                </g>
            </g>
        </g>
    </g>
</svg>