<?xml version="1.0" encoding="UTF-8"?>
<svg width="20px" height="20px" viewBox="0 0 20 20" version="1.1" xmlns="http://www.w3.org/2000/svg" xmlns:xlink="http://www.w3.org/1999/xlink">
    <title>卒中预防</title>
    <g id="健康中国" stroke="none" stroke-width="1" fill="none" fill-rule="evenodd">
        <g id="卒中科普" transform="translate(-667.000000, -187.000000)">
            <g id="卒中预防" transform="translate(667.000000, 187.000000)">
                <rect id="矩形" x="0" y="0" width="20" height="20"></rect>
                <g id="编组" transform="translate(1.111111, 0.415597)" fill="#FFFFFF" fill-rule="nonzero" opacity="0.9">
                    <path d="M13.0876561,14.8311008 L3.93401244,14.8311008 C3.72796313,14.8289915 3.52973163,14.909592 3.38399558,15.0547363 C3.23825953,15.1998806 3.15728298,15.3973546 3.15927597,15.6026512 C3.15719813,15.8080018 3.23813721,16.0055568 3.38388262,16.1507693 C3.52962803,16.2959817 3.72790819,16.3766248 3.93401244,16.3745141 L13.0876561,16.3745141 C13.2937063,16.3765403 13.491905,16.2958598 13.6375821,16.1506567 C13.7832591,16.0054536 13.8641554,15.807947 13.8620789,15.6026512 C13.8610039,15.1767907 13.514766,14.831819 13.0873425,14.8307883 L13.0876561,14.8311008 Z M16.2680837,1.28937814 C16.122416,1.43451314 16.0414823,1.63193862 16.0435144,1.83718053 L16.0435144,15.5816816 C16.0435144,16.6004157 15.2073447,17.4335277 14.1848715,17.4335277 L3.40740741,17.4335277 C2.38493427,17.4335277 1.54876452,16.6001032 1.54876452,15.5816816 L1.54876452,15.427309 C1.54876452,14.4085749 2.38493427,13.5754629 3.40740741,13.5754629 L13.2561774,13.5754629 C13.9395375,13.5734039 14.4929969,13.0219683 14.4950635,12.3411072 L14.4950635,2.46871143 C14.4950635,1.11123264 13.3797524,0 12.0169776,0 L2.47777232,0 C1.11499755,0 0,1.11123264 0,2.46902392 L0,16.5082296 C0,17.8660209 1.11499755,18.9772535 2.47777232,18.9772535 L14.2783369,18.9772535 C16.1059292,18.9772535 17.5925926,17.4960267 17.5925926,15.6748051 L17.5925926,1.83749302 C17.5915588,1.41175415 17.2455113,1.06683246 16.8182103,1.06563008 C16.6119015,1.06360535 16.4137514,1.14424313 16.2680837,1.28937814 Z M5.92981236,5.69555774 L6.3946299,5.69555774 C6.56550535,5.69504217 6.7038502,5.55706358 6.70419462,5.38681257 L6.70419462,4.95463182 C6.70419462,4.55338809 6.99870452,4.19839363 7.40142093,4.15214436 C7.86592483,4.10589508 8.25327279,4.47620179 8.25327279,4.9240073 L8.25327279,5.38650007 C8.25344473,5.55687308 8.39183988,5.69504154 8.56283751,5.69555774 L9.02765505,5.69555774 C9.47679049,5.69555774 9.84845634,6.08117672 9.80203731,6.54429448 C9.77098675,6.94553821 9.3993209,7.23865863 8.99660448,7.23865863 L8.56283751,7.23865863 C8.3920841,7.2391734 8.25378944,7.37696232 8.25327279,7.54709131 L8.25327279,7.97927206 C8.25327279,8.38051579 7.95876289,8.73551024 7.55604647,8.78175952 C7.09154257,8.8280088 6.70419462,8.45770208 6.70419462,8.01020907 L6.70419462,7.54709131 C6.70367797,7.37696232 6.56538331,7.2391734 6.3946299,7.23865863 L5.96086292,7.23865863 C5.55814651,7.23865863 5.20184912,6.94553821 5.1554301,6.54429448 C5.10901107,6.08117672 5.48067692,5.69555774 5.930126,5.69555774 L5.92981236,5.69555774 Z" id="形状"></path>
                </g>
            </g>
        </g>
    </g>
</svg>