<?xml version="1.0" encoding="UTF-8"?>
<svg width="20px" height="20px" viewBox="0 0 20 20" version="1.1" xmlns="http://www.w3.org/2000/svg" xmlns:xlink="http://www.w3.org/1999/xlink">
    <title>健康服务</title>
    <g id="健康中国" stroke="none" stroke-width="1" fill="none" fill-rule="evenodd">
        <g id="卒中科普" transform="translate(-1146.000000, -187.000000)">
            <g id="健康服务" transform="translate(1146.000000, 187.000000)">
                <rect id="矩形" x="0" y="0" width="20" height="20"></rect>
                <path d="M11.0329098,2.32835371 L10.9259259,2.45489791 L14.7283626,6.97464718 C15.3685749,7.74148724 15.4676994,8.88182804 14.9711638,9.76786358 L17.3771016,12.4256909 C17.9011681,11.9128839 18.5803654,11.0289572 18.7998517,10.7461538 C20.2303987,8.90292471 20.8929283,4.289926 17.5472607,1.74529489 C14.2016265,-0.80837901 11.0329098,2.32835371 11.0329098,2.32835371 Z M13.0066983,10.9308519 L12.9369769,10.9308519 C12.2928659,10.9128483 11.6842332,10.6051392 11.2552739,10.0806261 L8.6835058,6.94822174 C8.50196253,6.73763663 8.43778423,6.43706177 8.51534049,6.16063057 C8.59782932,5.89706272 8.80242188,5.70112268 9.05266214,5.64603307 C9.30918923,5.58454501 9.57586707,5.68267252 9.74585609,5.90110263 L11.9936032,8.63076744 L12.4612102,9.19805049 C12.7386634,9.54230437 13.2652171,9.57486941 13.6077962,9.30944647 C13.9523503,9.04924677 14.0931096,8.57324676 13.8188522,8.19671059 L12.8303432,6.93031576 L8.89678986,2.26751217 C8.5194437,1.91845435 5.56210638,-0.618793691 2.44477694,1.72156109 C-0.889906539,4.24539777 -0.174456598,8.74763153 1.10528095,10.7031528 L1.58517423,11.4235965 C2.68443682,13.0345546 5.96639511,16.4569176 8.29386662,18.4889143 C9.32412099,19.3883769 10.7484291,19.517819 11.7105978,18.5247082 L7.48973024,14.2020275 C7.21504828,13.881556 7.22599401,13.3801908 7.51434952,13.0743497 C7.65177303,12.9291542 7.83687399,12.8502273 8.02812314,12.855277 C8.2193723,12.8603268 8.40075675,12.9489303 8.53158107,13.1012086 L12.7483288,17.4149544 C13.2336473,17.0122022 13.6829648,16.5634033 14.1259458,16.0756648 L9.94257162,11.8124132 C9.70012979,11.4886167 9.72507486,11.0162813 10,10.7250056 C10.2747885,10.4363204 10.7096174,10.4363204 10.9844058,10.7250056 L15.0657807,14.8776882 C15.6360926,14.3885334 16.0662234,13.9451146 16.4844524,13.4838498 L13.9419154,10.7250056 C13.6460623,10.8675765 13.3260571,10.9407563 13.0026283,10.9398049 L13.0066983,10.9308519 Z" id="形状备份" fill="#FFFFFF" fill-rule="nonzero" opacity="0.9"></path>
            </g>
        </g>
    </g>
</svg>