<?xml version="1.0" encoding="UTF-8"?>
<svg width="24px" height="24px" viewBox="0 0 24 24" version="1.1" xmlns="http://www.w3.org/2000/svg" xmlns:xlink="http://www.w3.org/1999/xlink">
    <title>关于我们-小</title>
    <g id="0707" stroke="none" stroke-width="1" fill="none" fill-rule="evenodd">
        <g id="国际规范备份-3" transform="translate(-1396.000000, -277.000000)" fill-rule="nonzero">
            <g id="关于我们-小" transform="translate(1396.000000, 277.000000)">
                <rect id="矩形" fill="#000000" opacity="0" x="0" y="0" width="24" height="24"></rect>
                <path d="M23.5043906,19.3248281 C23.5686094,19.5360469 23.6145469,19.8023672 23.6512734,20.1144844 C23.6880703,20.4174844 23.7064219,20.7389297 23.7064219,21.0510937 C23.7064219,21.3632812 23.6880703,21.6663281 23.6329219,21.9418594 C23.5870781,22.2172969 23.5135781,22.4285625 23.4217266,22.5662109 C23.3574609,22.6580625 23.1829922,22.7498906 22.8799453,22.8417187 C22.5769453,22.9335469 22.2004453,23.0161406 21.7596797,23.0896406 C21.30975,23.1722578 20.8138359,23.2365937 20.2721719,23.3100234 C19.7305078,23.3834531 19.1886563,23.4386016 18.6377578,23.4845391 C18.0867891,23.5304062 17.5633594,23.5671328 17.0491406,23.6038828 C16.5441328,23.6313984 16.0941563,23.64975 15.7084922,23.64975 C15.3228047,23.64975 14.8821094,23.6313984 14.3770313,23.6038828 C13.8811172,23.5670859 13.3577813,23.5304062 12.8160703,23.4845391 C12.2742656,23.438625 11.7416719,23.3834531 11.2183125,23.3375625 C10.6949063,23.2824844 10.2082266,23.2181953 9.76750781,23.1538828 C9.32674219,23.0804062 8.95942969,23.0160937 8.65642969,22.9426875 C8.35342969,22.8692109 8.16977344,22.8049219 8.08713281,22.7406797 C7.96778906,22.6304766 7.86677344,22.3091016 7.78413281,21.7673203 C7.71065625,21.2255391 7.72905469,20.5276875 7.85758594,19.6829062 C7.9310625,19.1870859 8.13309375,18.81975 8.44523438,18.571875 C8.75751563,18.3239297 9.13396875,18.1219453 9.56554688,17.9658281 C9.99705469,17.8097109 10.4378672,17.6811563 10.8969844,17.5617656 C11.356125,17.442375 11.7601641,17.2770703 12.1090781,17.0383125 C12.3845391,16.8546563 12.5957344,16.6802109 12.7426406,16.5333047 C12.8895938,16.3771875 12.9905625,16.2210937 13.0640391,16.0741641 C13.1374922,15.9180703 13.1650547,15.7528359 13.1650547,15.5874609 C13.1650547,15.4222031 13.1558437,15.2293594 13.1374453,15.0089766 C13.1006953,14.706 12.9996797,14.4580312 12.8160938,14.2743984 C12.6324141,14.0999766 12.4304062,13.9254844 12.2100469,13.7510156 C12.0998672,13.6591641 12.0080391,13.5306328 11.925375,13.3561641 C11.8427344,13.1909062 11.7693047,13.0164375 11.7049922,12.8511328 C11.6407266,12.6674766 11.585625,12.4563281 11.5213125,12.2268047 C11.4294609,12.1900547 11.3376328,12.1441641 11.2458047,12.0890391 C11.1631875,12.0247969 11.0897344,11.9329453 11.0071172,11.8135781 C10.9153125,11.6942344 10.8418125,11.5197187 10.7684062,11.3085703 C10.6857891,11.0973516 10.6582031,10.8861562 10.6765781,10.6933359 C10.6949297,10.5005156 10.7316563,10.3443984 10.7959688,10.2158437 C10.8601875,10.0597734 10.9428516,9.92198437 11.0438203,9.80261719 C11.0346797,9.30682031 11.0530312,8.80176562 11.1172969,8.29673438 C11.1815391,7.86517969 11.2733672,7.41522656 11.4019687,6.93778125 C11.5305234,6.46945313 11.7325547,6.0286875 12.0171797,5.62467188 C12.2651016,5.25738281 12.5405859,4.95433594 12.8527734,4.72478906 C13.1557734,4.49519531 13.477125,4.3115625 13.7985234,4.18298438 C14.1199688,4.05445313 14.4504609,3.96260156 14.7719297,3.9166875 C15.0932578,3.87082031 15.4054688,3.84325781 15.6992813,3.84325781 C16.4889609,3.84325781 17.1867891,4.00851563 17.8112578,4.32991406 C18.4264922,4.6513125 18.8855859,5.00025 19.1794687,5.36749219 C19.5191953,5.78990625 19.7671406,6.249 19.9324453,6.77242969 C20.0977031,7.286625 20.2078594,7.77332813 20.2904766,8.21407031 C20.3730937,8.73747656 20.4007031,9.26085938 20.382375,9.78424219 C20.4558047,9.84850781 20.5293281,9.93119531 20.5935703,10.0321875 C20.6394609,10.1240156 20.685375,10.2434062 20.7221016,10.3903359 C20.7588281,10.5372656 20.7680859,10.7208984 20.7313125,10.9320937 C20.6945859,11.2076016 20.6394844,11.4370781 20.5476094,11.6024297 C20.4557813,11.7676875 20.3639297,11.9054297 20.2721719,11.9973281 C20.1619687,12.1075078 20.0426484,12.17175 19.9049063,12.2085234 C19.8405938,12.4380469 19.7854922,12.6492891 19.7212031,12.832875 C19.6569375,12.9981797 19.5834375,13.1726016 19.4916328,13.3378828 C19.3998047,13.5031406 19.2987891,13.6317422 19.1977734,13.7051719 C19.0784297,13.815375 18.9590859,13.9071797 18.8580469,13.9806328 C18.7570547,14.0632734 18.6743906,14.1367266 18.59175,14.2193438 C18.5091094,14.3019844 18.4448203,14.4030234 18.3989297,14.5040156 C18.3438281,14.6141953 18.2979141,14.7427031 18.2703984,14.8988672 C18.2428594,15.100875 18.2244844,15.3028828 18.2336719,15.5140781 C18.2428359,15.7252734 18.28875,15.9273047 18.3806016,16.120125 C18.4724297,16.3221328 18.6192656,16.5150234 18.8305078,16.6986328 C19.0417031,16.8822891 19.3263516,17.0475703 19.7028516,17.1852891 C20.02425,17.3230547 20.3823516,17.4423984 20.7771797,17.5433906 C21.1720313,17.6444062 21.5484844,17.7638203 21.91575,17.9015391 C22.2830391,18.0392812 22.6045078,18.2229375 22.8891563,18.4341328 C23.1737344,18.7097109 23.3757188,18.9852187 23.5043438,19.3249453 M11.1540234,15.0641719 C11.1172969,15.2386641 11.0805703,15.3672188 11.0346563,15.4590703 C10.9887422,15.5509219 10.8785859,15.6519141 10.7133047,15.7620703 C10.3092656,16.0099922 9.87771094,16.2119766 9.41859375,16.3589531 C8.9503125,16.5150234 8.50952344,16.6803047 8.08713281,16.8639609 C7.66478906,17.0476406 7.29747656,17.2954922 6.97610156,17.5985391 C6.66389063,17.9015156 6.46188281,18.3239531 6.38845313,18.8841094 C6.36091406,19.0586016 6.34253906,19.2238594 6.33330469,19.3799297 C6.32416406,19.5451875 6.31495313,19.6921172 6.296625,19.8298594 C6.27822656,19.857375 6.25989844,19.8849609 6.25071094,19.9124531 C6.24157031,19.9400625 6.22319531,19.9584141 6.20479688,19.9950938 C5.59875,19.9492031 4.99275,19.8941016 4.37753906,19.8298594 C3.76230469,19.7656172 3.19300781,19.6920938 2.67878906,19.6186641 C2.16457031,19.5360234 1.72380469,19.4625234 1.36567969,19.3890703 C1.00753125,19.3156641 0.787242187,19.2330234 0.69534375,19.1595469 C0.557601562,19.0493672 0.456632812,18.7279922 0.383132812,18.1862109 C0.309703125,17.6444297 0.337265625,16.9465781 0.465773437,16.0834219 C0.53925,15.6059297 0.74128125,15.2386406 1.05346875,14.9815547 C1.37482031,14.7336094 1.74215625,14.5224141 2.18285156,14.3846484 C2.61440625,14.2376953 3.05521875,14.1000469 3.5143125,13.9806094 C3.97347656,13.8612656 4.37749219,13.68675 4.72640625,13.475625 C5.0019375,13.2918984 5.21310938,13.1174766 5.36917969,12.9705703 C5.5160625,12.8145 5.61703125,12.6584063 5.68136719,12.4931016 C5.74563281,12.3277969 5.77319531,12.1624922 5.77319531,11.9972813 C5.77319531,11.8319766 5.76403125,11.6391094 5.74565625,11.4463125 C5.71811719,11.134125 5.60791406,10.8953438 5.43346875,10.7117344 C5.25902344,10.5372422 5.05701563,10.3535859 4.84579688,10.1699531 C4.72642969,10.0873125 4.61622656,9.96794531 4.53358594,9.80266406 C4.45094531,9.63740625 4.37751563,9.4629375 4.31320313,9.29767969 C4.2489375,9.114 4.19383594,8.90278125 4.12952344,8.67332813 C4.03769531,8.63653125 3.94584375,8.5906875 3.8540625,8.53553906 C3.77144531,8.47127344 3.69794531,8.37946875 3.61532813,8.26010156 C3.5326875,8.14073438 3.45007031,7.96621875 3.37661719,7.75509375 C3.30314063,7.54389844 3.26641406,7.33267969 3.2848125,7.14904688 C3.30314063,6.95625 3.33989063,6.79089844 3.40415625,6.65320313 C3.46839844,6.48796875 3.55108594,6.34103906 3.65210156,6.24002344 C3.63367969,5.74420313 3.66124219,5.23917188 3.72555469,4.73411719 C3.78982031,4.31172656 3.8908125,3.87098438 4.02855469,3.39346875 C4.16627344,2.91592969 4.37751563,2.48446875 4.65288281,2.09878125 C4.90082813,1.73149219 5.17633594,1.42846875 5.4885,1.19889844 C5.79147656,0.969375 6.1036875,0.78571875 6.42510938,0.657164063 C6.73727344,0.528585938 7.05867188,0.436757813 7.38921094,0.39084375 C7.7105625,0.344953125 8.03198438,0.317414063 8.33505469,0.317414063 C9.10635938,0.317414063 9.80423438,0.482671875 10.4194688,0.804070313 C11.0347031,1.12546875 11.5030078,1.47440625 11.8151953,1.85083594 C12.0172031,2.10796875 12.1457344,2.35586719 12.1916484,2.57625 C12.2467031,2.79665625 12.3202031,3.06290625 12.4120078,3.35678906 C12.1181719,3.52204688 11.8059844,3.77917969 11.4754219,4.10974219 C11.1448125,4.44032813 10.8601875,4.78007813 10.6031016,5.11982813 C10.3001016,5.55133594 10.0613438,6.02889844 9.90525,6.55223438 C9.74917969,7.07564063 9.63895313,7.56232031 9.55628906,8.01229688 C9.48283594,8.55403125 9.44613281,9.08660156 9.44613281,9.62838281 C9.32676563,9.766125 9.22572656,9.92224219 9.170625,10.0874766 C9.1063125,10.2435938 9.06963281,10.4272734 9.05125781,10.6292813 C9.03290625,10.8404531 9.06965625,11.0608359 9.1430625,11.3087813 C9.22570313,11.5750781 9.30832031,11.7770859 9.39100781,11.9056172 C9.48283594,12.0433828 9.5655,12.1535625 9.64816406,12.2270391 C9.73994531,12.3188438 9.83184375,12.3831328 9.92360156,12.4107188 C9.98791406,12.6586406 10.0429688,12.8881875 10.1072813,13.1085234 C10.1715234,13.2921797 10.2450234,13.4849531 10.3276641,13.6778203 C10.4195156,13.8706406 10.5205078,14.0084297 10.639875,14.1093984 C10.7500781,14.2012266 10.8327188,14.2746328 10.8878203,14.3388984 C10.9520859,14.4032109 10.9980234,14.4582891 11.0438906,14.5134141 C11.0806406,14.5684922 11.1081563,14.6419453 11.1173672,14.7337734 C11.0990391,14.7888516 11.1173672,14.9081953 11.1541172,15.0643125 L11.1540234,15.0641719 Z" id="形状" fill="#FFFFFF"></path>
            </g>
        </g>
    </g>
</svg>