<?xml version="1.0" encoding="UTF-8"?>
<svg width="24px" height="24px" viewBox="0 0 24 24" version="1.1" xmlns="http://www.w3.org/2000/svg" xmlns:xlink="http://www.w3.org/1999/xlink">
    <title>自我管理-小</title>
    <g id="0707" stroke="none" stroke-width="1" fill="none" fill-rule="evenodd" opacity="0.9">
        <g id="国际规范备份-3" transform="translate(-996.000000, -277.000000)" fill="#FFFFFF" fill-rule="nonzero">
            <g id="自我管理-小" transform="translate(996.000000, 277.000000)">
                <rect id="矩形" opacity="0" x="0" y="0" width="24" height="24"></rect>
                <path d="M8.80739453,7.19464926 C8.77254293,9.26965993 9.84221898,11.2052642 11.6196506,12.2776211 C13.3515071,13.3124456 15.5123063,13.3124456 17.2441627,12.2776211 C18.9974663,11.2213496 20.0644615,9.32059688 20.0564188,7.27507603 C20.0993131,5.7442865 19.5256021,4.26175304 18.4639687,3.15990628 C17.4023354,2.05805953 15.9439299,1.42536894 14.4131404,1.40928359 C11.2711346,1.46022054 8.76181936,4.04996254 8.80739453,7.19464926 Z M8.64654099,9.07931657 C8.60364672,8.62624577 8.20419376,8.29113422 7.75112295,8.32866672 L0.99340773,8.32866672 C0.513528001,8.36083742 0.130160397,8.74152414 0.0979896885,9.22408476 L0.0979896885,22.7438248 L3.8504246,22.7438248 C2.79683391,18.2855009 5.24448861,15.2802206 8.64654099,13.1542729 L8.64654099,9.07931657 Z M2.55823449,10.6771284 L6.15331112,10.6771284 C6.43480481,10.6771284 6.66536155,10.9050043 6.66536155,11.1891788 C6.66536155,11.4706725 6.4374857,11.7012293 6.15331112,11.7012293 L2.55823449,11.7012293 C2.27674079,11.7012293 2.04618405,11.4733534 2.04618405,11.1891788 C2.04618405,10.9076851 2.27674079,10.6771284 2.55823449,10.6771284 Z M2.04618405,12.9317589 C2.04618405,12.7950334 2.0998019,12.6663505 2.19631402,12.5698384 C2.29282615,12.4733263 2.42150898,12.4197084 2.55823449,12.4197084 L6.15331112,12.4197084 C6.43480481,12.4197084 6.66536155,12.6475843 6.66536155,12.9317589 C6.66536155,13.2132526 6.4374857,13.4438093 6.15331112,13.4438093 L2.55823449,13.4438093 C2.42150898,13.4438093 2.29282615,13.3901915 2.19631402,13.2936793 C2.0998019,13.1971672 2.04618405,13.0658035 2.04618405,12.9317589 Z M17.9787272,14.0657763 L15.8849503,18.556271 L15.1343005,16.6072623 C15.2013228,16.2265756 15.3541336,15.8646551 15.5820095,15.5536716 C15.8849503,14.8030217 16.0297185,14.5000809 15.2790686,14.0523719 C14.9439571,13.8673903 14.547185,13.824496 14.1799028,13.9370935 C13.8126205,14.049691 13.5069988,14.3043757 13.3300599,14.6448491 C13.0271191,15.3954989 13.7777689,15.6984398 13.7777689,16.1461488 C13.6705332,16.9530974 13.5204033,17.7520033 13.3300599,18.5428665 C13.1397166,19.3337298 13.3300599,19.1353437 12.5794101,17.6474485 C12.0110609,16.4195998 11.5150958,15.1595804 11.0941957,13.875433 C7.05141005,15.2668161 4.95763313,17.9503893 4.95763313,21.867173 C4.95763313,23.3684727 23.3834062,24.1191226 23.8311152,20.971755 C24.2761433,17.8217065 18.5872898,12.580562 17.9787272,14.0818617 L17.9787272,14.0657763 Z" id="形状"></path>
            </g>
        </g>
    </g>
</svg>