<?xml version="1.0" encoding="UTF-8"?>
<svg width="24px" height="24px" viewBox="0 0 24 24" version="1.1" xmlns="http://www.w3.org/2000/svg" xmlns:xlink="http://www.w3.org/1999/xlink">
    <title>卒中预防-小</title>
    <g id="0707" stroke="none" stroke-width="1" fill="none" fill-rule="evenodd" opacity="0.9">
        <g id="国际规范备份-3" transform="translate(-796.000000, -277.000000)" fill-rule="nonzero">
            <g id="卒中预防-小" transform="translate(796.000000, 277.000000)">
                <rect id="矩形" fill="#000000" opacity="0" x="0" y="0" width="24" height="24"></rect>
                <path d="M12.0507117,0.441448488 L11.9492883,0.441448488 C9.60809609,3.28694078 4.39605575,2.74883283 2.5,2.70093841 L2.5,12.5108435 C2.5,20.5880974 12,23.825197 12,23.825197 C12,23.825197 21.5,20.6810689 21.5,12.5108435 L21.5,2.70093841 C18.789739,2.76855406 14.3919039,3.28694078 12.0507117,0.441448488 Z M16.7959426,13.4597994 L13.5081312,13.4597994 L13.5081312,16.7476107 L11.316257,16.7476107 L11.316257,13.4597994 L8.02562826,13.4597994 L8.02562826,11.2679251 L11.3134396,11.2679251 L11.3134396,7.9801137 L13.5053139,7.9801137 L13.5053139,11.2679251 L16.7931253,11.2679251 L16.7931253,13.4597994 L16.7959426,13.4597994 Z" id="形状" fill="#FFFFFF"></path>
            </g>
        </g>
    </g>
</svg>