<?xml version="1.0" encoding="UTF-8"?>
<svg width="24px" height="24px" viewBox="0 0 24 24" version="1.1" xmlns="http://www.w3.org/2000/svg" xmlns:xlink="http://www.w3.org/1999/xlink">
    <title>国际规范-小</title>
    <g id="0707" stroke="none" stroke-width="1" fill="none" fill-rule="evenodd" opacity="0.9">
        <g id="国际规范备份-3" transform="translate(-1196.000000, -277.000000)">
            <g id="国际规范-小" transform="translate(1196.000000, 277.000000)">
                <rect id="矩形" x="0" y="0" width="24" height="24"></rect>
                <path d="M6.36977609,18.9627037 C6.11395305,18.9601726 5.86783629,19.0568932 5.68689591,19.2310663 C5.50595553,19.4052395 5.40541811,19.6422083 5.40794289,19.8885642 C5.40531276,20.1349849 5.50580366,20.372051 5.68675567,20.5463059 C5.86770767,20.7205608 6.11388484,20.8173326 6.36977609,20.8147998 L17.7345947,20.8147998 C17.9904188,20.8172311 18.2364949,20.7204146 18.417362,20.5461709 C18.5982292,20.3719271 18.6986669,20.1349192 18.6960385,19.8885642 C18.6947541,19.3775317 18.2648782,18.9635656 17.7342053,18.9623287 L6.36977609,18.9627037 Z M20.9935368,2.04596989 C20.8126813,2.2201319 20.712197,2.45704247 20.7147201,2.70333276 L20.7147201,19.9253137 C20.7147201,21.1477946 19.6765632,22.1475289 18.4070992,22.1475289 L5.71596316,22.1475289 C4.44649909,22.1475289 3.40834228,21.1474196 3.40834228,19.9253137 L3.40834228,19.7400666 C3.40834228,18.5175857 4.44649909,17.5178513 5.71596316,17.5178513 L17.2540676,17.5178513 C18.1025016,17.5153804 18.789656,16.8536578 18.7922219,16.0366244 L18.7922219,2.96245371 C18.7922219,1.33347916 17.4074936,0 15.7155238,0 L4.56176331,0 C2.86979357,0 1.48545468,1.33347916 1.48545468,2.96282871 L1.48545468,21.0371713 C1.48545468,22.6665208 2.86979357,24 4.56176331,24 L18.5231422,24 C20.7922119,24 22.6379971,22.2225278 22.6379971,20.0370619 L22.6379971,2.70370775 C22.6367136,2.19282111 22.2070741,1.77891508 21.6765533,1.77747223 C21.420408,1.77504255 21.1743923,1.87180788 20.9935368,2.04596989 Z M8.73502908,7.33338542 C8.94718159,7.33276674 9.11894534,7.16719242 9.11937296,6.9628912 L9.11937296,6.44427431 C9.11937296,5.96278183 9.48502534,5.53678849 9.98502284,5.48128935 C10.5617334,5.42579022 11.04265,5.87015828 11.04265,6.40752488 L11.04265,6.96251621 C11.0428634,7.16696382 11.2146896,7.33276598 11.4269938,7.33338542 L12.0040938,7.33338542 C12.5617234,7.33338542 13.0231697,7.79612819 12.9655376,8.3518695 C12.9269863,8.83336198 12.4655401,9.18510648 11.9655426,9.18510648 L11.4269938,9.18510648 C11.2149928,9.1857242 11.0432914,9.35107092 11.04265,9.5552257 L11.04265,10.0738426 C11.04265,10.5553351 10.6769976,10.9813284 10.1770001,11.0368275 C9.60028956,11.0923267 9.11937296,10.6479586 9.11937296,10.110967 L9.11937296,9.5552257 C9.1187315,9.35107092 8.94703008,9.1857242 8.73502908,9.18510648 L8.19648037,9.18510648 C7.69648287,9.18510648 7.25411747,8.83336198 7.19648536,8.3518695 C7.13885325,7.79612819 7.60029955,7.33338542 8.15831857,7.33338542 L8.73502908,7.33338542 Z" id="形状备份-2" fill="#FFFFFF" fill-rule="nonzero"></path>
            </g>
        </g>
    </g>
</svg>