<?xml version="1.0" encoding="UTF-8"?>
<svg width="14px" height="14px" viewBox="0 0 14 14" version="1.1" xmlns="http://www.w3.org/2000/svg" xmlns:xlink="http://www.w3.org/1999/xlink">
    <title>密码</title>
    <g id="new" stroke="none" stroke-width="1" fill="none" fill-rule="evenodd">
        <g id="卒中科普备份-6" transform="translate(-1063.000000, -558.000000)" fill-rule="nonzero">
            <g id="密码" transform="translate(1063.000000, 558.000000)">
                <rect id="矩形" fill="#000000" opacity="0" x="0" y="0" width="14" height="14"></rect>
                <path d="M5.80064197,8.85362289 C5.80064197,9.11698698 5.88430141,9.36714949 6.0428687,9.57681727 C6.04613201,9.58134141 6.04984032,9.58556888 6.05347446,9.59001885 C6.3502875,9.9359299 6.37186985,10.1828291 6.37320485,10.2054498 L6.37320485,10.8917094 C6.37320485,11.2385846 6.65540715,11.5206386 7.00213402,11.5206386 C7.34900922,11.5206386 7.63113735,11.2383621 7.63113735,10.8917094 L7.63113735,10.1925449 C7.63113735,10.1846832 7.63091486,10.1767475 7.63009903,10.16896 C7.63336234,10.1524951 7.6387023,10.1187495 7.65479636,10.0699482 C7.68713282,9.97190049 7.76300482,9.81103406 7.94159697,9.6021821 C7.94419278,9.59914129 7.94671443,9.59595215 7.94923608,9.59291133 C8.11581331,9.37998024 8.20384856,9.12432943 8.20384856,8.85362289 C8.20384856,8.19109644 7.6648088,7.65205668 7.00213402,7.65205668 C6.33960757,7.65205668 5.80064197,8.19109644 5.80064197,8.85362289 Z M7.08749929,10.1996648 L7.08749929,10.8917836 C7.08749929,10.9388049 7.04915537,10.9770005 7.00213402,10.9770005 C6.95511266,10.9770005 6.91691708,10.9387308 6.91691708,10.8917836 L6.91691708,10.2021865 C6.91691708,10.1514568 6.90297384,9.74873447 6.47214252,9.24306948 C6.38848308,9.12974356 6.34428004,8.99528029 6.34428004,8.85362289 C6.34428004,8.49080196 6.63938725,8.19562058 7.00213402,8.19562058 C7.36495495,8.19562058 7.6602105,8.49080196 7.6602105,8.85362289 C7.6602105,8.99995276 7.61318914,9.13819851 7.52418973,9.25374941 C7.10411251,9.74732531 7.08356848,10.1008013 7.08749929,10.1996648 Z M11.5422165,5.35275689 L10.909579,5.34875192 L10.909579,3.60569845 C10.909579,3.5942027 10.9087632,3.58263277 10.9074282,3.57106285 C10.7885398,2.64279899 10.3356811,1.78825631 9.63221495,1.16444461 C8.92251881,0.535292939 8.00864319,0.188788565 7.05946447,0.188788565 C6.0231405,0.188788565 5.04889361,0.592326728 4.31605763,1.32501438 C3.58329581,2.0577762 3.17983181,3.03209725 3.17983181,4.06834706 L3.17983181,5.35238606 L2.43913421,5.35275689 C1.92723927,5.35275689 1.51072202,5.76927414 1.51072202,6.28124325 L1.51072202,12.8603764 C1.51072202,13.3722713 1.92723927,13.7887886 2.43913421,13.7887886 L8.11173417,13.7887886 C8.11981829,13.7887886 8.1281249,13.7884177 8.13613485,13.7876019 L11.5519322,13.7876019 C11.5599422,13.7884177 11.5681746,13.7887886 11.5764071,13.7887886 C12.0882279,13.7887886 12.5048193,13.3723455 12.5048193,12.8603764 L12.5048193,6.28124325 C12.5048193,5.7693483 12.088302,5.35275689 11.5764071,5.35275689 L11.5422165,5.35275689 Z M4.70083175,1.70986267 C5.33072508,1.079821 6.16835787,0.732871631 7.05931614,0.732871631 C7.87544074,0.732871631 8.66100887,1.03079716 9.27102567,1.57161691 C9.87177169,2.10427839 10.2599575,2.83221941 10.3652734,3.62327584 L10.3652734,5.34882608 L3.72391488,5.35283106 L3.72391488,4.06834706 C3.72391488,3.17731462 4.07086425,2.339756 4.70083175,1.70986267 Z M11.6052577,13.2434447 L2.43913421,13.2445572 C2.22731562,13.2445572 2.05487926,13.0722691 2.05487926,12.8603764 L2.05487926,6.28124325 C2.05487926,6.06935048 2.22724145,5.89691412 2.43913421,5.89691412 L3.45194751,5.89639496 C3.46581659,5.89639496 3.479389,5.8949858 3.49266474,5.89305748 C3.50727548,5.89535663 3.52218288,5.89706246 3.53746111,5.89706246 L8.67383962,5.89706246 C8.67880875,5.89713662 8.68644787,5.89728496 8.69638614,5.89728496 C8.71782016,5.89728496 8.75052745,5.89676579 8.79243134,5.89461497 L10.6080193,5.89461497 C10.6192926,5.89602413 10.6307883,5.89691412 10.6423583,5.89691412 L11.5764071,5.89691412 C11.7881515,5.89691412 11.9605879,6.06942465 11.9605879,6.28124325 L11.9605879,12.8603764 C11.9605879,13.0625534 11.8036522,13.2286856 11.6052577,13.2434447 Z" id="形状" fill="#666666"></path>
            </g>
        </g>
    </g>
</svg>