<?xml version="1.0" encoding="UTF-8"?>
<svg width="40px" height="40px" viewBox="0 0 40 40" version="1.1" xmlns="http://www.w3.org/2000/svg" xmlns:xlink="http://www.w3.org/1999/xlink">
    <title>手势_点击</title>
    <g id="0707" stroke="none" stroke-width="1" fill="none" fill-rule="evenodd">
        <g id="首页备份-5" transform="translate(-1320.000000, -762.000000)" fill-rule="nonzero">
            <g id="手势_点击" transform="translate(1340.000000, 782.000000) rotate(-270.000000) translate(-1340.000000, -782.000000) translate(1320.000000, 762.000000)">
                <rect id="矩形" fill="#000000" opacity="0" x="0" y="0" width="40" height="40"></rect>
                <path d="M30.3733333,16.3766667 C29.8185749,16.3668057 29.2745088,16.529909 28.8166667,16.8433333 C28.4771673,15.5559554 27.3244842,14.6502759 25.9933333,14.625 C25.4116666,14.625 24.8433333,14.7866667 24.3483333,15.0916667 C24.086907,14.2162946 23.4333992,13.512195 22.5799123,13.1863419 C21.7264254,12.8604888 20.7699572,12.9499151 19.9916667,13.4283333 L19.9916667,6.48333332 C20.0226834,5.67180417 19.7271645,4.88169695 19.1712004,4.2897126 C18.6152362,3.69772825 17.8452106,3.35325568 17.0333333,3.33333332 C15.3185441,3.3607464 13.9481052,4.76842548 13.9666667,6.48333332 L13.9666667,22.455 L12.0766667,20.55 C10.8636724,19.3935971 8.95632761,19.3935971 7.74333332,20.55 C6.41061919,21.787344 6.30140747,23.8594153 7.49666668,25.23 L16.1,34.1033333 C16.2716667,34.2766666 16.4666667,34.4266666 16.6783333,34.5483333 C18.7009768,36.1492065 21.2723739,36.8897928 23.8366667,36.61 C32.5283334,36.61 33.33,31.775 33.33,25.83 L33.33,19.53 C33.3732087,18.7155453 33.0820208,17.9187562 32.5238426,17.3240793 C31.9656644,16.7294024 31.1888902,16.3883965 30.3733333,16.38 L30.3733333,16.3766667 Z" id="路径" fill="#FFFFFF"></path>
            </g>
        </g>
    </g>
</svg>