<?xml version="1.0" encoding="UTF-8"?>
<svg width="50px" height="40px" viewBox="0 0 50 40" version="1.1" xmlns="http://www.w3.org/2000/svg" xmlns:xlink="http://www.w3.org/1999/xlink">
    <title>套餐</title>
    <g id="健康中国" stroke="none" stroke-width="1" fill="none" fill-rule="evenodd">
        <g id="健康管理" transform="translate(-386.000000, -1546.000000)">
            <g id="套餐" transform="translate(386.000000, 1546.000000)">
                <polygon id="矩形备份-39" fill="#117BD0" points="0 0 49.3125413 0 34.334867 40 0 40"></polygon>
                <g id="用户,医生,医护,治疗备份-2" transform="translate(12.000000, 12.000000)" fill-rule="nonzero">
                    <rect id="矩形" fill="#000000" opacity="0" x="0" y="0" width="16" height="16"></rect>
                    <path d="M3.68876306,8.74743728 L3.06394611,8.74743728 C3.02958117,8.74743728 3.00146442,8.77555405 3.00146442,8.80991897 L3.00146442,9.37225422 C3.00146442,9.44098408 2.94523089,9.49721761 2.87650103,9.49721761 L2.31416577,9.49721761 C2.27980083,9.49721761 2.25168408,9.52533438 2.25168408,9.55969931 L2.25168408,10.1845163 C2.25168408,10.2188812 2.27980084,10.2469979 2.31416577,10.246998 L2.87650103,10.246998 C2.94523089,10.246998 3.00146442,10.3032315 3.00146442,10.3719613 L3.00146442,10.9342966 C3.00146442,10.9686615 3.02958119,10.9967783 3.06394611,10.9967783 L3.68876306,10.9967783 C3.723128,10.9967783 3.75124475,10.9686615 3.75124475,10.9342966 L3.75124475,10.3719613 C3.75124475,10.3032315 3.80747828,10.246998 3.87620814,10.246998 L4.43854339,10.246998 C4.47290833,10.246998 4.50102509,10.2188812 4.50102509,10.1845163 L4.50102509,9.55969931 C4.50102509,9.52533438 4.47290833,9.49721763 4.43854339,9.49721761 L3.87620814,9.49721761 C3.80747828,9.49721761 3.75124475,9.44098408 3.75124475,9.37225422 L3.75124475,8.80991897 C3.75124475,8.77555403 3.72312798,8.74743728 3.68876306,8.74743728 Z" id="路径" fill="#FFFFFF"></path>
                    <path d="M14.9979682,15.2455335 C15.0073221,15.2658401 11.4396173,16 7.99843795,16 C4.5603827,16 0.964561156,15.2845846 1.00205019,15.2455335 C1.06453187,14.7769208 1.28165577,14.0380748 1.55969931,13.6553744 C1.81587427,13.2945426 2.1642097,13.011813 2.52816558,12.7743825 C3.37166845,12.2432881 4.34013473,11.982427 5.22112663,11.5309968 C5.27736016,11.4997559 5.33359367,11.4685151 5.38826516,11.4357122 C5.43825052,11.4060334 5.5007322,11.4419604 5.5007322,11.4997559 L5.5007322,12.8806014 C5.19613394,13.0571122 4.99306844,13.3898272 5.00087866,13.7694035 C5.013375,14.303622 5.45230891,14.7378698 5.98652739,14.74568 C6.54573856,14.7534902 7.00029289,14.303622 7.00029289,13.7459729 C7.00029289,13.2804842 6.68163625,12.8884116 6.25051255,12.7775066 L6.25051255,11.4966318 C6.25051255,11.2888802 6.16616227,11.1014351 6.03026458,10.9670995 C6.01464416,10.9514791 6.01308211,10.9280484 6.02557844,10.910866 C6.10368056,10.8093332 6.16928633,10.6953041 6.21302353,10.5672166 C6.27394319,10.0423704 6.25207459,9.51283805 6.25207459,8.98642975 C6.0568193,8.83647369 5.92716978,8.6162257 5.80845455,8.39910183 C5.61007517,8.01640145 5.46636727,7.60402227 5.40544762,7.17602266 C5.40388558,7.16352631 5.39451333,7.15259202 5.38045494,7.14946792 C5.161769,7.09948256 5.00087864,6.91203748 4.91652836,6.70740994 C4.81811969,6.47466563 4.76969637,6.22473884 4.75407595,5.97481206 C4.74157961,5.73425753 4.8368642,5.49057892 5.01493703,5.33281266 C5.0321195,5.31719223 5.0399297,5.29376159 5.03368153,5.271893 C4.85248462,4.51898858 4.71971102,3.74577761 4.75095187,2.9678805 C4.77125842,2.47896123 4.8587328,1.98379381 5.06648442,1.54173581 C5.23674705,1.17934198 5.49135995,0.855999219 5.81157864,0.621692859 C6.45201602,0.146831984 7.26896417,0.0124963437 8.04373719,0 C8.48110905,0.00781021875 8.93878747,0.0702919062 9.31836377,0.309284391 C9.45894758,0.395196719 9.57297667,0.520160109 9.66357512,0.657619844 C10.0322171,0.715415406 10.4024212,0.851313094 10.6820267,1.1137362 C11.0865957,1.49175045 11.2724788,2.05096163 11.3271502,2.59611442 C11.4193107,3.50053695 11.245924,4.40652153 10.9944352,5.26876892 C10.988187,5.29219956 10.9944352,5.31719223 11.0131797,5.33281266 C11.2006248,5.49838914 11.2943474,5.75925022 11.2693547,6.01230108 C11.2412379,6.31221322 11.1818803,6.62462169 11.0116177,6.88235869 C10.9257054,7.0120082 10.7944938,7.10729278 10.6445377,7.1447818 C10.6320414,7.14790588 10.6226691,7.15727814 10.6211071,7.17133652 C10.5570634,7.6243288 10.4071073,8.0632627 10.1931075,8.46626964 C10.0868886,8.65840086 9.96973542,8.84897002 9.79478669,8.98330567 C9.79322464,9.50815191 9.77135605,10.0376843 9.8322757,10.5609685 C9.87132677,10.6796837 9.93068438,10.7859026 10.0025383,10.8843112 C10.0150347,10.9014937 10.0134726,10.9264864 9.99629016,10.9405448 C9.84477205,11.0780045 9.74948747,11.2763839 9.74948745,11.4966318 L9.74948745,12.9930684 C8.90442253,13.1149078 8.24992678,13.8475056 8.24992678,14.7238114 L8.24992678,14.9612418 C8.24992678,14.9815484 8.26710925,14.9971688 8.2874158,14.9971688 C8.34677341,14.9971688 8.40613102,14.9956068 8.46548862,14.9940447 C8.48579517,14.9940447 8.50610173,14.9940447 8.52797033,14.9924827 C8.60294836,14.9909206 8.67792639,14.9893586 8.75446647,14.9862345 C8.79664161,14.9846725 8.83725472,14.9831104 8.87942986,14.9815484 C8.99189691,14.9768623 9.105926,14.9737382 9.216831,14.96749 C9.23557552,14.965928 9.25119594,14.9503075 9.25119594,14.931563 L9.25119594,14.7222493 C9.25119594,14.52387 9.32929806,14.3364249 9.47300595,14.194279 C9.61515181,14.0521332 9.80259689,13.972469 10.0009763,13.972469 C10.1993557,13.972469 10.3868007,14.0505711 10.5305086,14.194279 C10.6710925,14.339549 10.7491946,14.526994 10.7491946,14.7253734 L10.7491946,14.8237821 C10.7491946,14.8456507 10.7679391,14.8612711 10.7882456,14.8597091 C10.8413551,14.8550229 10.8929025,14.8503368 10.9460119,14.8440886 L11.0912818,14.8300303 C11.1287709,14.8253441 11.1662599,14.82222 11.2021869,14.819096 C11.2224934,14.8175339 11.244362,14.8144098 11.2646685,14.8128478 C11.2943474,14.8097237 11.3240262,14.8065996 11.3521429,14.8034755 C11.3583911,14.8034755 11.3662013,14.8019135 11.3724495,14.8019135 C11.3958801,14.7987894 11.4193107,14.7972274 11.4411793,14.7941033 C11.46461,14.7909792 11.4864786,14.7894172 11.5099092,14.7862931 C11.5442741,14.783169 11.5786391,14.7784829 11.611442,14.7753588 C11.6458069,14.7706727 11.6801718,14.7675486 11.7145368,14.7628624 C11.7332813,14.7613004 11.7457776,14.74568 11.7457776,14.7269355 C11.7457776,13.9381041 11.2162453,13.2664259 10.4961437,13.050864 L10.4961437,11.4732012 C10.4961437,11.4138436 10.5601874,11.3794787 10.6101728,11.4091575 L10.6117348,11.4091575 C11.5911354,11.9761788 12.7267402,12.2198575 13.6577175,12.8774773 C14.1278922,13.2008201 14.5402714,13.6381919 14.7573953,14.1802206 C14.8745485,14.4473299 14.9620228,14.9565557 14.9979682,15.2455335 Z" id="路径" fill="#FFFFFF"></path>
                </g>
            </g>
        </g>
    </g>
</svg>