<?xml version="1.0" encoding="UTF-8"?>
<svg width="14px" height="14px" viewBox="0 0 14 14" version="1.1" xmlns="http://www.w3.org/2000/svg" xmlns:xlink="http://www.w3.org/1999/xlink">
    <title>用户</title>
    <g id="new" stroke="none" stroke-width="1" fill="none" fill-rule="evenodd">
        <g id="卒中科普备份-6" transform="translate(-1063.000000, -494.000000)" fill-rule="nonzero">
            <g id="用户" transform="translate(1063.000000, 494.000000)">
                <rect id="矩形" fill="#000000" opacity="0" x="0" y="0" width="14" height="14"></rect>
                <path d="M7.03026953,0.13671875 C3.23949609,0.13671875 0.167042969,3.20919922 0.167042969,6.99994531 C0.167042969,10.7906914 3.23949609,13.8632812 7.03026953,13.8632812 C10.821043,13.8632812 13.8934961,10.7906641 13.8934961,6.99994531 C13.8934961,3.20919922 10.8210156,0.13671875 7.03026953,0.13671875 Z M7.03026953,0.708667969 C10.4993164,0.708667969 13.3215742,3.53092578 13.3215742,6.99997266 C13.3215742,8.52616406 12.7747813,9.92692969 11.8671602,11.0174805 C11.2399219,10.7555273 9.75925781,10.2416836 8.84269531,9.9710625 C8.76451953,9.94650781 8.75221484,9.94257031 8.75221484,9.61723437 C8.75221484,9.34855469 8.86279297,9.07798828 8.97060938,8.84898438 C9.08733984,8.60015625 9.22583594,8.18182422 9.27557422,7.80647656 C9.41464453,7.64503906 9.60397266,7.32667578 9.72573438,6.71986328 C9.83240234,6.18504688 9.78269141,5.99041406 9.71178906,5.80775781 C9.70451563,5.78848047 9.69669531,5.76950391 9.69111719,5.7505 C9.66429297,5.62510156 9.70115234,4.97358203 9.79278125,4.46810547 C9.85589063,4.12125 9.77656641,3.38370703 9.29903516,2.77355859 C8.99743359,2.387875 8.42045313,1.91452734 7.36651563,1.84862891 L6.78844141,1.84917578 C5.75235938,1.91455469 5.17483203,2.387875 4.87323047,2.77355859 C4.39569922,3.38373437 4.31640234,4.12127734 4.37951172,4.46785937 C4.47166016,4.97358203 4.50797266,5.62510156 4.48172266,5.74798437 C4.47614453,5.76947656 4.46832422,5.78848047 4.46050391,5.80775781 C4.39012109,5.99041406 4.33986328,6.18504688 4.44710547,6.71986328 C4.56829297,7.32667578 4.75764844,7.64506641 4.89726563,7.80647656 C4.94642969,8.18179687 5.08495313,8.60015625 5.20223047,8.84898438 C5.28767969,9.03106641 5.32790234,9.27877344 5.32790234,9.62896484 C5.32790234,9.95430078 5.31559766,9.95823828 5.24242578,9.98139844 C4.29460938,10.2612344 2.78602734,10.8063594 2.22356641,11.0526719 C1.29808984,9.95711719 0.738992188,8.54292578 0.738992188,7 C0.738992188,3.53089844 3.56122266,0.708667969 7.03026953,0.708667969 Z M2.63796094,11.4984844 C3.28196094,11.2355742 4.56602344,10.7775664 5.40938672,10.5284648 C5.89979687,10.3737539 5.89979687,9.96072656 5.89979687,9.62896484 C5.89979687,9.35388672 5.88082031,8.94837891 5.71995703,8.60546094 C5.60935156,8.37060547 5.48310547,7.96788672 5.45521484,7.65261328 C5.4490625,7.57889453 5.41444531,7.51075391 5.35858203,7.46216406 C5.27758984,7.39120703 5.11281641,7.13149609 5.00781641,6.60761719 C4.92460937,6.19289453 4.95980078,6.10214063 4.99387109,6.01444922 C5.00839062,5.97701563 5.02236328,5.94015625 5.03354687,5.89853906 C5.10223437,5.64749609 5.02569922,4.82280859 4.94249219,4.365375 C4.90620703,4.16653125 4.95198047,3.60158203 5.32396484,3.12569141 C5.65739453,2.69926563 6.16229687,2.46159375 6.80629687,2.42055078 L7.34863281,2.41997656 C8.00994141,2.46159375 8.51484375,2.69926563 8.84884766,3.12569141 C9.22083203,3.60158203 9.26608594,4.16653125 9.22974609,4.36562109 C9.14708594,4.82280859 9.07000391,5.64746875 9.13869141,5.89823828 C9.15044922,5.94012891 9.16382031,5.97698828 9.17836719,6.01442188 C9.21246484,6.10208594 9.24762891,6.19286719 9.16496875,6.60758984 C9.05999609,7.13149609 8.89464844,7.39120703 8.81365625,7.46213672 C8.75836719,7.51072656 8.72375,7.57886719 8.71702344,7.65258594 C8.68965234,7.96785938 8.56343359,8.37057813 8.45285547,8.60543359 C8.3260625,8.87493359 8.18029297,9.23379297 8.18029297,9.61720703 C8.18029297,9.94899609 8.18029297,10.3620234 8.67570703,10.5181289 C9.48278516,10.7566211 10.773,11.1998086 11.4544062,11.4677773 C10.3166875,12.5943125 8.75336328,13.2913594 7.03026953,13.2913594 C5.32284375,13.2913594 3.77291797,12.6066172 2.63796094,11.4984844 Z" id="形状" fill="#666666"></path>
            </g>
        </g>
    </g>
</svg>